<?xml version="1.0" encoding="utf-8"?>
<!-- Generator: Adobe Illustrator 19.1.0, SVG Export Plug-In . SVG Version: 6.00 Build 0)  -->
<svg version="1.1" id="Layer_1" xmlns="http://www.w3.org/2000/svg" xmlns:xlink="http://www.w3.org/1999/xlink" x="0px" y="0px"
	 viewBox="-275 367 60 60" style="enable-background:new -275 367 60 60;" xml:space="preserve">
<style type="text/css">
	.st0{fill:#FD8369;}
	.st1{fill:#EA6552;}
	.st2{fill:#343B43;}
	.st3{fill:#FFFFFF;}
	.st4{fill:#CCCBCA;}
	.st5{fill:#70C9E9;}
	.st6{fill:none;stroke:#FFFFFF;stroke-linecap:round;stroke-linejoin:round;stroke-miterlimit:10;}
	.st7{fill:#9DE8F7;}
	.st8{fill:#333C49;}
	.st9{fill:#3F4A5A;}
	.st10{fill:#8FDEF6;}
	.st11{fill:#FECE66;}
	.st12{fill:#495057;}
	.st13{fill:#E6E5E5;}
	.st14{fill:#D9D8D7;}
	.st15{fill:#F5B540;}
	.st16{fill:#E24F3B;}
	.st17{clip-path:url(#SVGID_2_);}
	.st18{clip-path:url(#SVGID_4_);}
	.st19{fill:#F67656;}
	.st20{fill:#F8C963;}
	.st21{fill:none;}
	.st22{fill:#FFFFFF;stroke:#EA6552;stroke-width:2;stroke-miterlimit:10;}
	.st23{fill:#E7BE4B;}
	.st24{fill:#8E3A31;}
	.st25{fill:#393737;}
	.st26{fill:#1E262E;}
	.st27{fill-rule:evenodd;clip-rule:evenodd;fill:#FFFFFF;}
</style>
<circle class="st0" cx="-163.2" cy="393" r="29.9"/>
<path class="st1" d="M-133.3,395.6l-13.7-13.7c-0.2-0.2-0.5-0.3-0.8-0.3h-30.6c-0.3,0-0.6,0.1-0.8,0.3c-0.2,0.2-0.3,0.5-0.3,0.8
	v19.2h12.3l0,0h-15.2v0.6c0,0.5,0.2,1,0.6,1.4l0,0l0,0l19.1,19.1C-147.3,422.7-134.7,410.8-133.3,395.6z"/>
<path class="st2" d="M-179.6,401.9v-19.2c0-0.3,0.1-0.6,0.3-0.8c0.2-0.2,0.5-0.3,0.8-0.3h30.5c0.3,0,0.6,0.1,0.8,0.3
	c0.2,0.2,0.3,0.5,0.3,0.8v19.2H-179.6z"/>
<path class="st3" d="M-143.9,402.4c0,0.5-0.2,1-0.6,1.4c-0.4,0.4-0.9,0.6-1.4,0.6h-34.6c-0.5,0-1-0.2-1.4-0.6
	c-0.4-0.4-0.6-0.9-0.6-1.4v-0.6h38.5v0.6H-143.9z"/>
<path class="st4" d="M-159,402c0,0.2-0.1,0.4-0.2,0.5s-0.3,0.2-0.5,0.2h-6.8c-0.2,0-0.4-0.1-0.5-0.2s-0.2-0.3-0.2-0.5v-0.2h8.3v0.2
	H-159z"/>
<rect x="-177.5" y="383.7" class="st3" width="28.6" height="16.1"/>
<rect x="-176.1" y="385" class="st5" width="25.9" height="13.4"/>
<circle class="st3" cx="-163.2" cy="395.1" r="0.9"/>
<path class="st6" d="M-165,393.2c0.5-0.5,1.1-0.8,1.9-0.8c0.7,0,1.4,0.3,1.9,0.8"/>
<path class="st6" d="M-166.6,391.5c0.9-0.9,2.1-1.4,3.5-1.4c1.4,0,2.6,0.5,3.5,1.4"/>
<path class="st6" d="M-168.2,389.9c1.3-1.3,3.1-2,5.1-2s3.8,0.8,5.1,2.1"/>
<circle class="st7" cx="-207.7" cy="306.2" r="30.1"/>
<g>
	<path class="st8" d="M-195.4,304.6c0,0.5-0.4,0.8-0.8,0.8h-2.1c-0.5,0-0.8-0.4-0.8-0.8v-0.2c0-0.5,0.4-0.8,0.8-0.8h2.1
		c0.5,0,0.8,0.4,0.8,0.8V304.6z"/>
	<path class="st8" d="M-219.9,304.6c0,0.5,0.4,0.8,0.8,0.8h2.1c0.5,0,0.8-0.4,0.8-0.8v-0.2c0-0.5-0.4-0.8-0.8-0.8h-2.1
		c-0.5,0-0.8,0.4-0.8,0.8C-219.9,304.4-219.9,304.6-219.9,304.6z"/>
	<path class="st8" d="M-207.2,322.5h-0.2h-0.6h-0.2c-0.2,0-0.3,0.2-0.3,0.3v1.5c0,0.2,0.2,0.3,0.3,0.3h0.2h0.6h0.2
		c0.2,0,0.3-0.1,0.3-0.3v-1.5C-206.8,322.6-207,322.5-207.2,322.5z"/>
	<path class="st8" d="M-199.1,322.5h-0.2h-0.6h-0.2c-0.2,0-0.3,0.2-0.3,0.3v1.5c0,0.2,0.2,0.3,0.3,0.3h0.2h0.6h0.2
		c0.2,0,0.3-0.1,0.3-0.3v-1.5C-198.7,322.6-198.9,322.5-199.1,322.5z"/>
	<path class="st8" d="M-215.2,322.5h-0.2h-0.6h-0.2c-0.2,0-0.3,0.2-0.3,0.3v1.5c0,0.2,0.2,0.3,0.3,0.3h0.2h0.6h0.2
		c0.2,0,0.3-0.1,0.3-0.3v-1.5C-214.9,322.6-215,322.5-215.2,322.5z"/>
	<rect x="-209.2" y="313.6" class="st3" width="3" height="2.4"/>
	<rect x="-208.2" y="316" class="st3" width="1" height="6.5"/>
	<rect x="-211.7" y="307.7" class="st8" width="8" height="1.6"/>
	<path class="st3" d="M-200.1,322.5v-0.8c0-0.3-0.1-0.5-0.3-0.7c-0.2-0.2-0.4-0.3-0.7-0.3h-6.1v-1h6.1c0.5,0,1,0.2,1.4,0.6
		c0.4,0.4,0.6,0.9,0.6,1.4v0.8H-200.1z"/>
	<path class="st3" d="M-216.2,322.5v-0.8c0-0.5,0.2-1,0.6-1.4c0.4-0.4,0.9-0.6,1.4-0.6h6.1v1h-6.1c-0.3,0-0.5,0.1-0.7,0.3
		c-0.2,0.2-0.3,0.4-0.3,0.7v0.8H-216.2z"/>
	<path class="st9" d="M-200,290.6c0-1.6-1.3-2.9-2.9-2.9h-9.5c-1.6,0-2.9,1.3-2.9,2.9v14.3c0,1.6,1.3,2.9,2.9,2.9h9.5
		c1.6,0,2.9-1.3,2.9-2.9V290.6z"/>
	<path class="st3" d="M-216.2,312.5c-0.6,0-1.2-0.3-1.7-0.7c-0.5-0.5-0.7-1.1-0.7-1.7v-4.7h1.1v4.7c0,0.4,0.1,0.7,0.4,0.9
		c0.2,0.2,0.5,0.4,0.9,0.4V312.5z"/>
	<path class="st3" d="M-199.1,311.4c0.3,0,0.6-0.1,0.9-0.4c0.2-0.2,0.4-0.6,0.4-0.9v-4.7h1.1v4.7c0,0.6-0.3,1.2-0.7,1.7
		c-0.4,0.4-1,0.7-1.7,0.7C-199.1,312.5-199.1,311.4-199.1,311.4z"/>
	<path class="st9" d="M-199.1,313.1c0,0.1,0,0.2-0.1,0.3s-0.2,0.1-0.3,0.1h-16.3c-0.1,0-0.2,0-0.3-0.1c-0.1-0.1-0.1-0.2-0.1-0.3
		v-1.9c0-0.5,0.2-1,0.6-1.3c0.4-0.4,0.9-0.6,1.3-0.6h13.3c0.5,0,1,0.2,1.3,0.6c0.4,0.4,0.6,0.9,0.6,1.3V313.1z"/>
	<path class="st8" d="M-203.7,294c0,0.3-0.1,0.6-0.3,0.8c-0.2,0.2-0.5,0.3-0.8,0.3h-5.5c-0.3,0-0.6-0.1-0.8-0.3
		c-0.2-0.2-0.3-0.5-0.3-0.8v-6.2h7.9v6.2H-203.7z"/>
</g>
<g>
	<circle class="st10" cx="-489.6" cy="442.5" r="30"/>
	<path class="st5" d="M-459.9,446.8l-20.8-20.8l0,0l-0.3-0.3l0,0c-0.4-0.3-1-0.5-1.5-0.5h-14.1c-1.3,0-2.4,1.1-2.4,2.4v30
		c0,0.6,0.2,1.1,0.6,1.5l0,0l0.3,0.3l0,0l12.8,12.8C-472.2,470.4-461.8,460-459.9,446.8z"/>
	<g>
		<path class="st2" d="M-482.6,425.1h-14.1c-1.3,0-2.4,1.1-2.4,2.4v30c0,1.3,1.1,2.4,2.4,2.4h14.1c1.3,0,2.4-1.1,2.4-2.4v-30
			C-480.2,426.2-481.3,425.1-482.6,425.1z"/>
		<rect x="-497.8" y="430.4" class="st11" width="16.2" height="24.3"/>
		<path class="st12" d="M-491.1,458.1c-0.4,0-0.7-0.3-0.7-0.7v-0.2c0-0.4,0.3-0.7,0.7-0.7h3c0.4,0,0.6,0.3,0.6,0.7v0.2
			c0,0.4-0.3,0.7-0.6,0.7H-491.1z"/>
		<circle class="st12" cx="-489.6" cy="427.8" r="0.6"/>
		<circle class="st2" cx="-489.6" cy="427.8" r="0.2"/>
	</g>
</g>
<g>
	<circle class="st0" cx="-365.5" cy="341.5" r="30"/>
	<path class="st1" d="M-336.1,347.2c-4.8-4.8-16-16-16-16c-1.4-1.4-3.1-2-4.9-2h-17c-1.8,0-3.6,0.7-4.9,2c-0.6,0.6-1.1,1.4-1.5,2.1
		c-0.8,0.1-1.7,0.4-2.4,0.8c0-0.1-0.2-0.2-0.2-0.2c-0.1-0.2-0.3-0.3-0.5-0.2c-0.2,0.1-0.3,0.3-0.2,0.5l0.6,1.1l0,0l-0.8-0.9
		c-0.1-0.2-0.4-0.2-0.5-0.1l0,0c-0.2,0.1-0.2,0.4-0.1,0.5l0.7,1c0,0.1,6.8,6.8,6.8,6.8l0,0l-0.1,0.1l0,0l-6.7-6.8c0,0-0.1,0-0.1-0.1
		l-0.2-0.2c0,0-0.1,0-0.1-0.1l-0.2-0.2c0,0-0.1,0-0.1-0.1l-0.2-0.2c0,0-0.1,0-0.1-0.1l-0.2-0.2c-0.1-0.2-0.4-0.2-0.5,0
		c-0.2,0.1-0.2,0.4,0,0.5l0.8,0.9c0,0,0.1,0,0.1,0.1l6.9,6.9c0,0.1-0.1,0.1-0.1,0.2l-7-7c0,0,0-0.1-0.1-0.1l-0.9-0.8
		c-0.2-0.1-0.4-0.1-0.5,0c-0.1,0.2-0.1,0.4,0,0.5l1,1c0,0,7,7,7.1,7.1l0.1,0.1c0,0.1,0,0.1,0,0.2l-0.1-0.1c0-0.1-6.9-6.9-6.9-7
		l-0.1-0.1c0-0.1-1.2-0.9-1.2-0.9c-0.2-0.1-0.4-0.1-0.5,0.1c-0.1,0.2-0.1,0.4,0.1,0.5l0.1,0.1c0,0.1,0.8,0.8,0.8,0.8l0,0l-1.1-0.6
		c-0.2-0.1-0.4,0-0.5,0.2c-0.1,0.2,0,0.4,0.2,0.5l0.6,0.6l-0.8-0.3c-0.2-0.1-0.4,0-0.5,0.2l0,0c-0.1,0.2,0,0.4,0.2,0.5
		c0,0,0.4,0.5,0.5,0.5l0,0l0,0l-0.7-0.2c-0.2-0.1-0.4,0.1-0.5,0.3l0,0c0,0.2,0.1,0.4,0.3,0.5c0,0.1,0.3,0.4,0.4,0.5l-0.5-0.1
		c-0.2,0-0.4,0.1-0.4,0.3l0,0c0,0.2,0.1,0.3,0.3,0.4c0,0.1,0.3,0.4,0.4,0.4h-0.4c-0.2,0-0.4,0.2-0.4,0.4c0,0.2,0.1,0.3,0.3,0.4
		c0,0.1,0.3,0.4,0.4,0.4h-0.2c-0.2,0-0.4,0.2-0.3,0.4l0,0c0,0.2,0.1,0.3,0.3,0.3c0,0.1,0.3,0.3,0.3,0.4h-0.1
		c-0.2,0.1-0.3,0.3-0.3,0.5c0,0.1,0.1,0.2,0.3,0.3c0,0.1,0.3,0.3,0.3,0.4c-0.2,0.1-0.3,0.3-0.2,0.5c0,0.1,0.1,0.2,0.2,0.2l0.3,0.4
		c-0.1,0.1-0.2,0.3-0.1,0.5c0.1,0.1,0.1,0.2,0.2,0.2c0,0,0,0,0,0.1c0.1,0.1,0.3,0.3,0.3,0.4c-0.1,0.1-0.1,0.3,0,0.4
		c0.1,0.1,0.1,0.1,0.2,0.1c0,0,0.4,0.4,0.4,0.5c0,0.1,0,0.2,0.1,0.3c0,0.1,0.1,0.1,0.2,0.1c0,0,17.3,17.4,22.3,22.4
		C-350,370.6-338.6,360.5-336.1,347.2z"/>
	<g>
		<g>
			<g>
				<path class="st12" d="M-378.5,350.6c0-0.2-0.2-0.4-0.4-0.4l0,0c-0.2,0-0.4,0.2-0.4,0.4v1.3c0,0.2,0.2,0.4,0.4,0.4l0,0
					c0.2,0,0.4-0.2,0.4-0.4V350.6z"/>
				<path class="st12" d="M-380.5,351.7c0,0.2,0.1,0.4,0.3,0.4l0,0c0.2,0,0.4-0.1,0.4-0.3l0.2-1.3c0-0.2-0.1-0.4-0.3-0.4
					c-0.2,0-0.4,0.1-0.4,0.3L-380.5,351.7z"/>
				<path class="st12" d="M-381.6,351.5c-0.1,0.2,0.1,0.4,0.3,0.5c0.2,0.1,0.4-0.1,0.5-0.3l0.3-1.2c0.1-0.2-0.1-0.4-0.3-0.5l0,0
					c-0.2-0.1-0.4,0.1-0.5,0.3L-381.6,351.5z"/>
				<path class="st12" d="M-382.7,351.1c-0.1,0.2,0,0.4,0.2,0.5l0,0c0.2,0.1,0.4,0,0.5-0.2l0.5-1.2c0.1-0.2,0-0.4-0.2-0.5
					c-0.2-0.1-0.4,0-0.5,0.2L-382.7,351.1z"/>
				<path class="st12" d="M-383.7,350.6c-0.1,0.2,0,0.4,0.2,0.5l0,0c0.2,0.1,0.4,0,0.5-0.2l0.6-1.1c0.1-0.2,0-0.4-0.2-0.5
					c-0.2-0.1-0.4,0-0.5,0.2L-383.7,350.6z"/>
				<path class="st12" d="M-384.6,349.9c-0.1,0.2-0.1,0.4,0.1,0.5l0,0c0.2,0.1,0.4,0.1,0.5-0.1l0.7-1c0.1-0.2,0.1-0.4-0.1-0.5
					c-0.2-0.1-0.4-0.1-0.5,0.1L-384.6,349.9z"/>
				<path class="st12" d="M-385.5,349.2c-0.1,0.2-0.1,0.4,0,0.5c0.2,0.1,0.4,0.1,0.5,0l0.8-0.9c0.1-0.2,0.1-0.4,0-0.5l0,0
					c-0.2-0.1-0.4-0.1-0.5,0L-385.5,349.2z"/>
				<path class="st12" d="M-386.2,348.4c-0.2,0.1-0.2,0.4,0,0.5l0,0c0.1,0.2,0.4,0.2,0.5,0l0.9-0.8c0.2-0.1,0.2-0.4,0-0.5l0,0
					c-0.1-0.2-0.4-0.2-0.5,0L-386.2,348.4z"/>
				<path class="st12" d="M-386.9,347.5c-0.2,0.1-0.2,0.4-0.1,0.5l0,0c0.1,0.2,0.4,0.2,0.5,0.1l1-0.7c0.2-0.1,0.2-0.4,0.1-0.5
					c-0.1-0.2-0.4-0.2-0.5-0.1L-386.9,347.5z"/>
				<path class="st12" d="M-387.4,346.5c-0.2,0.1-0.3,0.3-0.2,0.5l0,0c0.1,0.2,0.3,0.3,0.5,0.2l1.1-0.6c0.2-0.1,0.3-0.3,0.2-0.5l0,0
					c-0.1-0.2-0.3-0.3-0.5-0.2L-387.4,346.5z"/>
				<path class="st12" d="M-387.9,345.5c-0.2,0.1-0.3,0.3-0.2,0.5s0.3,0.3,0.5,0.2l1.2-0.5c0.2-0.1,0.3-0.3,0.2-0.5
					c-0.1-0.2-0.3-0.3-0.5-0.2L-387.9,345.5z"/>
				<path class="st12" d="M-388.2,344.4c-0.2,0.1-0.3,0.3-0.3,0.5c0.1,0.2,0.3,0.3,0.5,0.3l1.2-0.3c0.2-0.1,0.3-0.3,0.3-0.5
					c-0.1-0.2-0.3-0.3-0.5-0.3L-388.2,344.4z"/>
				<path class="st12" d="M-388.3,343.2c-0.2,0-0.4,0.2-0.3,0.4l0,0c0,0.2,0.2,0.4,0.4,0.3l1.3-0.2c0.2,0,0.4-0.2,0.3-0.4
					c0-0.2-0.2-0.4-0.4-0.3L-388.3,343.2z"/>
				<path class="st12" d="M-388.4,342c-0.2,0-0.4,0.2-0.4,0.4l0,0c0,0.2,0.2,0.4,0.4,0.4h1.3c0.2,0,0.4-0.2,0.4-0.4l0,0
					c0-0.2-0.2-0.4-0.4-0.4H-388.4z"/>
				<path class="st12" d="M-388.2,340.9c-0.2,0-0.4,0.1-0.4,0.3l0,0c0,0.2,0.1,0.4,0.3,0.4l1.3,0.2c0.2,0,0.4-0.1,0.4-0.3
					s-0.1-0.4-0.3-0.4L-388.2,340.9z"/>
				<path class="st12" d="M-388,339.7c-0.2-0.1-0.4,0.1-0.5,0.3l0,0c-0.1,0.2,0.1,0.4,0.3,0.5l1.2,0.3c0.2,0.1,0.4-0.1,0.5-0.3l0,0
					c0.1-0.2-0.1-0.4-0.3-0.5L-388,339.7z"/>
				<path class="st12" d="M-387.6,338.7c-0.2-0.1-0.4,0-0.5,0.2l0,0c-0.1,0.2,0,0.4,0.2,0.5l1.2,0.5c0.2,0.1,0.4,0,0.5-0.2
					c0.1-0.2,0-0.4-0.2-0.5L-387.6,338.7z"/>
				<path class="st12" d="M-387.1,337.6c-0.2-0.1-0.4,0-0.5,0.2c-0.1,0.2,0,0.4,0.2,0.5l1.1,0.6c0.2,0.1,0.4,0,0.5-0.2
					c0.1-0.2,0-0.4-0.2-0.5L-387.1,337.6z"/>
				<path class="st12" d="M-386.5,336.7c-0.2-0.1-0.4-0.1-0.5,0.1c-0.1,0.2-0.1,0.4,0.1,0.5l1,0.7c0.2,0.1,0.4,0.1,0.5-0.1
					c0.1-0.2,0.1-0.4-0.1-0.5L-386.5,336.7z"/>
				<path class="st12" d="M-385.7,335.9c-0.2-0.1-0.4-0.1-0.5,0c-0.1,0.2-0.1,0.4,0,0.5l0.9,0.8c0.2,0.1,0.4,0.1,0.5,0l0,0
					c0.1-0.2,0.1-0.4,0-0.5L-385.7,335.9z"/>
				<path class="st12" d="M-384.9,335.1c-0.1-0.2-0.4-0.2-0.5,0l0,0c-0.2,0.1-0.2,0.4,0,0.5l0.8,0.9c0.1,0.2,0.4,0.2,0.5,0l0,0
					c0.2-0.1,0.2-0.4,0-0.5L-384.9,335.1z"/>
				<path class="st12" d="M-384,334.5c-0.1-0.2-0.4-0.2-0.5-0.1l0,0c-0.2,0.1-0.2,0.4-0.1,0.5l0.7,1c0.1,0.2,0.4,0.2,0.5,0.1l0,0
					c0.2-0.1,0.2-0.4,0.1-0.5L-384,334.5z"/>
				<path class="st12" d="M-383,333.9c-0.1-0.2-0.3-0.3-0.5-0.2l0,0c-0.2,0.1-0.3,0.3-0.2,0.5l0.6,1.1c0.1,0.2,0.3,0.3,0.5,0.2
					c0.2-0.1,0.3-0.3,0.2-0.5L-383,333.9z"/>
				<path class="st12" d="M-382.9,335l-0.4-0.7c1.3-0.7,2.8-1.1,4.3-1.1v0.8C-380.3,334-381.7,334.3-382.9,335z"/>
			</g>
		</g>
		<g>
			<rect x="-369.4" y="334.2" class="st3" width="1.5" height="1.5"/>
			<rect x="-363.1" y="334.2" class="st3" width="1.5" height="1.5"/>
		</g>
		<g>
			<path class="st12" d="M-352.1,331.2c-1.4-1.4-3.1-2-4.9-2h-17c-1.8,0-3.6,0.7-4.9,2c-1.4,1.4-2,3.1-2,4.9v1.8
				c0,0.3,0.1,0.7,0.4,0.9c0.3,0.3,0.6,0.4,0.9,0.4h5.2c0.3,0,0.7-0.1,0.9-0.4c0.3-0.2,0.4-0.6,0.4-0.9v-2.4c0-0.3,0.1-0.7,0.4-0.9
				c0.3-0.3,0.6-0.4,0.9-0.4h12.9c0.3,0,0.7,0.1,0.9,0.4c0.3,0.3,0.4,0.6,0.4,0.9v2.4c0,0.3,0.1,0.7,0.4,0.9
				c0.3,0.3,0.6,0.4,0.9,0.4h5.2c0.3,0,0.7-0.1,0.9-0.4c0.3-0.2,0.4-0.6,0.4-0.9v-1.8C-350,334.4-350.7,332.6-352.1,331.2z"/>
			<g>
				<g>
					<path class="st2" d="M-373.2,337.9v-1h-7.7v1c0,0.3,0.1,0.7,0.4,0.9c0.3,0.3,0.6,0.4,0.9,0.4h5.2c0.3,0,0.7-0.1,0.9-0.4
						C-373.4,338.6-373.2,338.3-373.2,337.9z"/>
					<path class="st2" d="M-350,337.9v-1h-7.7v1c0,0.3,0.1,0.7,0.4,0.9c0.3,0.3,0.6,0.4,0.9,0.4h5.2c0.3,0,0.7-0.1,0.9-0.4
						C-350.2,338.6-350,338.3-350,337.9z"/>
				</g>
			</g>
		</g>
		<path class="st12" d="M-358.8,336.2c-0.1-0.2-0.3-0.3-0.4-0.4c-0.2-0.1-0.4-0.1-0.6-0.1h-11.4c-0.2,0-0.4,0-0.6,0.1
			c-0.2,0.1-0.3,0.2-0.4,0.4l-5.2,7c-0.2,0.3-0.4,0.7-0.6,1.1c-0.1,0.4-0.2,0.8-0.2,1.2v6.5c0,0.5,0.2,0.9,0.5,1.3
			c0.3,0.3,0.8,0.5,1.3,0.5h21.8c0.5,0,0.9-0.2,1.3-0.5c0.3-0.3,0.5-0.8,0.5-1.3v-6.5c0-0.4-0.1-0.8-0.2-1.2
			c-0.1-0.4-0.3-0.8-0.6-1.1L-358.8,336.2z"/>
		<path class="st2" d="M-352.8,352v-0.3h-25.3v0.3c0,0.5,0.2,0.9,0.5,1.3c0.3,0.3,0.8,0.5,1.3,0.5h21.8c0.5,0,0.9-0.2,1.3-0.5
			C-353,352.9-352.8,352.4-352.8,352z"/>
		<g>
			<path class="st3" d="M-365.5,337.4c-3.5,0-6.3,2.8-6.3,6.3s2.8,6.3,6.3,6.3s6.3-2.8,6.3-6.3S-362,337.4-365.5,337.4z M-370.2,341
				c0.2-0.4,0.7-0.5,1.1-0.3c0.4,0.2,0.5,0.7,0.3,1.1c-0.2,0.4-0.7,0.5-1.1,0.3C-370.3,341.8-370.5,341.4-370.2,341z M-371,343.7
				c0-0.4,0.4-0.8,0.8-0.8c0.4,0,0.8,0.4,0.8,0.8c0,0.4-0.4,0.8-0.8,0.8C-370.6,344.5-371,344.2-371,343.7z M-369.2,346.8
				c-0.4,0.2-0.9,0.1-1.1-0.3c-0.2-0.4-0.1-0.9,0.3-1.1c0.4-0.2,0.9-0.1,1.1,0.3C-368.6,346-368.8,346.5-369.2,346.8z M-368.2,339
				c0.4-0.2,0.9-0.1,1.1,0.3c0.2,0.4,0.1,0.9-0.3,1.1c-0.4,0.2-0.9,0.1-1.1-0.3C-368.8,339.7-368.6,339.2-368.2,339z M-367.1,348.2
				c-0.2,0.4-0.7,0.5-1.1,0.3c-0.4-0.2-0.5-0.7-0.3-1.1s0.7-0.5,1.1-0.3C-367.1,347.3-366.9,347.8-367.1,348.2z M-365.5,338.2
				c0.4,0,0.8,0.4,0.8,0.8s-0.4,0.8-0.8,0.8s-0.8-0.4-0.8-0.8S-365.9,338.2-365.5,338.2z M-365.5,349.2c-0.4,0-0.8-0.4-0.8-0.8
				s0.4-0.8,0.8-0.8s0.8,0.4,0.8,0.8S-365.1,349.2-365.5,349.2z M-362.5,340.1c-0.2,0.4-0.7,0.5-1.1,0.3c-0.4-0.2-0.5-0.7-0.3-1.1
				c0.2-0.4,0.7-0.5,1.1-0.3C-362.4,339.2-362.2,339.7-362.5,340.1z M-362.1,341.8c-0.2-0.4-0.1-0.9,0.3-1.1
				c0.4-0.2,0.9-0.1,1.1,0.3c0.2,0.4,0.1,0.9-0.3,1.1C-361.4,342.3-361.9,342.2-362.1,341.8z M-360.8,344.5c-0.4,0-0.8-0.4-0.8-0.8
				c0-0.4,0.4-0.8,0.8-0.8c0.4,0,0.8,0.4,0.8,0.8C-360,344.2-360.4,344.5-360.8,344.5z"/>
			<circle class="st4" cx="-365.5" cy="343.7" r="3"/>
			<polygon class="st4" points="-361.2,348.7 -360.5,348 -361.9,346.9 -362.3,347.3 			"/>
		</g>
	</g>
</g>
<g>
	<circle class="st10" cx="-343.2" cy="400.8" r="30"/>
	<path class="st5" d="M-313.2,401.8l-13.7-13.7h-14.2c-1.2,0-2.1,0.9-2.1,2.1c0-1.2-0.9-2.1-2.1-2.1h-14.2v2.1
		c-0.5,0-1.1,0.2-1.5,0.6c-0.4,0.4-0.6,1-0.6,1.5v16.9c0,0.5,0.2,1.1,0.6,1.5l20,20C-325.8,429.6-313.7,417.2-313.2,401.8z"/>
	<g>
		<path class="st2" d="M-359.5,390.2c-0.5,0-1.1,0.2-1.5,0.6c-0.4,0.4-0.6,1-0.6,1.5v16.9c0,0.5,0.2,1.1,0.6,1.5
			c0.4,0.4,1,0.6,1.5,0.6h14.2c0,1.2,0.9,2.1,2.1,2.1c1.2,0,2.1-0.9,2.1-2.1h14.2c0.5,0,1.1-0.2,1.5-0.6c0.4-0.4,0.6-1,0.6-1.5
			v-16.9c0-0.5-0.2-1.1-0.6-1.5c-0.4-0.4-1-0.6-1.5-0.6C-326.9,390.2-359.5,390.2-359.5,390.2z"/>
		<g>
			<path class="st3" d="M-345.3,388.1h-14.2v21.1h14.2c1.2,0,2.1,0.9,2.1,2.1v-21.1C-343.2,389.1-344.2,388.1-345.3,388.1z"/>
			<path class="st3" d="M-341.1,388.1h14.2v21.1h-14.2c-1.2,0-2.1,0.9-2.1,2.1v-21.1C-343.2,389.1-342.3,388.1-341.1,388.1z"/>
			<path class="st13" d="M-345.3,388.1v21.1c1.2,0,2.1,0.9,2.1,2.1v-21.1C-343.2,389.1-344.2,388.1-345.3,388.1z"/>
		</g>
		<g>
			<g>
				<rect x="-357.4" y="396.2" class="st14" width="9.9" height="1"/>
				<rect x="-357.4" y="398.2" class="st14" width="9.9" height="1"/>
				<rect x="-357.4" y="400.2" class="st14" width="9.9" height="1"/>
				<rect x="-357.4" y="402.2" class="st14" width="9.9" height="1"/>
				<rect x="-357.4" y="404.1" class="st14" width="9.9" height="1"/>
				<rect x="-357.4" y="406.1" class="st14" width="9.9" height="1"/>
			</g>
			<g>
				<rect x="-339" y="390.2" class="st14" width="9.9" height="1"/>
				<rect x="-339" y="392.2" class="st14" width="9.9" height="1"/>
				<rect x="-339" y="394.2" class="st14" width="9.9" height="1"/>
				<rect x="-339" y="396.2" class="st14" width="9.9" height="1"/>
				<rect x="-339" y="398.2" class="st14" width="9.9" height="1"/>
				<rect x="-339" y="400.2" class="st14" width="9.9" height="1"/>
				<rect x="-339" y="402.2" class="st14" width="9.9" height="1"/>
				<rect x="-339" y="404.1" class="st14" width="9.9" height="1"/>
				<rect x="-339" y="406.1" class="st14" width="9.9" height="1"/>
			</g>
			<rect x="-357.4" y="390.2" class="st11" width="9.9" height="5"/>
			<polygon class="st1" points="-341,388.1 -341,408.1 -341,408.1 -340,407.1 -339,408.1 -339,388.1 			"/>
		</g>
	</g>
</g>
<g>
	<circle class="st11" cx="-89.4" cy="338.1" r="30"/>
	<path class="st15" d="M-59.7,342.1l-13.7-13.7c-0.2-0.2-0.6-0.4-0.9-0.4h-3.2h-0.4h-28v0.7l0.7,0.7v3.8h-0.7v0.7l2.3,2.3l0,0
		c-0.2,0.5-0.3,1-0.3,1.5c0,1,0.4,1.9,1.1,2.7c0.7,0.7,1.7,1.1,2.6,1.1h-7.7v6.5l20,20C-73.3,367.3-61.6,356.3-59.7,342.1z"/>
	<g>
		<g>
			<rect x="-107.8" y="341.6" class="st1" width="36.8" height="6.5"/>
			<rect x="-103.9" y="341.6" class="st16" width="28.9" height="6.5"/>
			<g>
				<rect x="-98.6" y="345.2" class="st3" width="18.4" height="0.9"/>
				<rect x="-98.6" y="343.5" class="st3" width="9.2" height="0.9"/>
			</g>
		</g>
		<g>
			<path class="st2" d="M-100.1,340.6c-0.7,0-1.4-0.3-2-0.8c-0.5-0.5-0.8-1.2-0.8-2c0-0.7,0.3-1.4,0.8-2c0.5-0.5,1.2-0.8,2-0.8h25.2
				v-1h-25.2c-1,0-1.9,0.4-2.6,1.1c-0.7,0.7-1.1,1.7-1.1,2.6c0,1,0.4,1.9,1.1,2.6c0.7,0.7,1.7,1.1,2.6,1.1h25.2v-1h-25.2V340.6z"/>
			<g>
				<g>
					<path id="SVGID_5_" class="st4" d="M-100.1,340.6c-0.7,0-1.4-0.3-2-0.8c-0.5-0.5-0.8-1.2-0.8-2c0-0.7,0.3-1.4,0.8-2
						c0.5-0.5,1.2-0.8,2-0.8h24.2v5.6C-75.9,340.6-100.1,340.6-100.1,340.6z"/>
				</g>
				<g>
					<defs>
						<path id="SVGID_1_" d="M-100.1,340.6c-0.7,0-1.4-0.3-2-0.8c-0.5-0.5-0.8-1.2-0.8-2c0-0.7,0.3-1.4,0.8-2c0.5-0.5,1.2-0.8,2-0.8
							h24.2v5.6C-75.9,340.6-100.1,340.6-100.1,340.6z"/>
					</defs>
					<clipPath id="SVGID_2_">
						<use xlink:href="#SVGID_1_"  style="overflow:visible;"/>
					</clipPath>
					<g class="st17">
						<rect x="-102.9" y="335" class="st3" width="27" height="0.2"/>
						<rect x="-102.9" y="335.6" class="st3" width="27" height="0.2"/>
						<rect x="-102.9" y="336.1" class="st3" width="27" height="0.2"/>
						<rect x="-102.9" y="336.6" class="st3" width="27" height="0.2"/>
						<rect x="-102.9" y="337.2" class="st3" width="27" height="0.2"/>
						<rect x="-102.9" y="337.7" class="st3" width="27" height="0.2"/>
						<rect x="-102.9" y="338.2" class="st3" width="27" height="0.2"/>
						<rect x="-102.9" y="338.8" class="st3" width="27" height="0.2"/>
						<rect x="-102.9" y="339.3" class="st3" width="27" height="0.2"/>
						<rect x="-102.9" y="339.8" class="st3" width="27" height="0.2"/>
						<rect x="-102.9" y="340.4" class="st3" width="27" height="0.2"/>
					</g>
				</g>
			</g>
		</g>
		<g>
			<path class="st5" d="M-73.3,328.5c-0.2-0.2-0.6-0.4-0.9-0.4h-31.6v0.7h31.6c0.1,0,0.3,0.1,0.4,0.2c0.1,0.1,0.2,0.2,0.2,0.4v3.5
				c0,0.1-0.1,0.3-0.2,0.4c-0.1,0.1-0.2,0.2-0.4,0.2h-31.6v0.7h31.6c0.3,0,0.6-0.1,0.9-0.4c0.2-0.2,0.4-0.6,0.4-0.9v-3.5
				C-73,329-73.1,328.7-73.3,328.5z"/>
			<path class="st3" d="M-105.1,333.3v-4.5h30.9c0.1,0,0.3,0.1,0.4,0.2c0.1,0.1,0.2,0.2,0.2,0.4v3.5c0,0.1-0.1,0.3-0.2,0.4
				c-0.1,0.1-0.2,0.2-0.4,0.2h-30.9V333.3z"/>
			<g>
				<g>
					<path id="SVGID_7_" class="st4" d="M-74.2,328.8h-15.2v4.5h15.2c0.1,0,0.2-0.1,0.3-0.2s0.1-0.2,0.1-0.4v-3.5
						c0-0.1,0-0.3-0.1-0.4C-73.9,328.9-74,328.8-74.2,328.8z"/>
				</g>
				<g>
					<defs>
						<path id="SVGID_3_" d="M-74.2,328.8h-15.2v4.5h15.2c0.1,0,0.2-0.1,0.3-0.2s0.1-0.2,0.1-0.4v-3.5c0-0.1,0-0.3-0.1-0.4
							C-73.9,328.9-74,328.8-74.2,328.8z"/>
					</defs>
					<clipPath id="SVGID_4_">
						<use xlink:href="#SVGID_3_"  style="overflow:visible;"/>
					</clipPath>
					<g class="st18">
						<rect x="-89.6" y="328.6" class="st3" width="16.6" height="0.2"/>
						<rect x="-89.6" y="329.1" class="st3" width="16.6" height="0.2"/>
						<rect x="-89.6" y="329.5" class="st3" width="16.6" height="0.2"/>
						<rect x="-89.6" y="330" class="st3" width="16.6" height="0.2"/>
						<rect x="-89.6" y="330.5" class="st3" width="16.6" height="0.2"/>
						<rect x="-89.6" y="331" class="st3" width="16.6" height="0.2"/>
						<rect x="-89.6" y="331.5" class="st3" width="16.6" height="0.2"/>
						<rect x="-89.6" y="331.9" class="st3" width="16.6" height="0.2"/>
						<rect x="-89.6" y="332.4" class="st3" width="16.6" height="0.2"/>
						<rect x="-89.6" y="332.9" class="st3" width="16.6" height="0.2"/>
						<rect x="-89.6" y="333.4" class="st3" width="16.6" height="0.2"/>
					</g>
				</g>
			</g>
			<polygon class="st1" points="-76.8,331.9 -78.6,331.9 -78.6,335.9 -77.7,335.1 -76.8,335.9 			"/>
		</g>
	</g>
</g>
<circle class="st19" cx="-80.2" cy="429.5" r="30"/>
<g>
	<g>
		<rect x="-95.7" y="418.8" class="st3" width="31" height="21.3"/>
		<rect x="-80.9" y="441.4" class="st3" width="1.3" height="2.5"/>
		<path class="st9" d="M-80.2,447.5c-1.2,0-2.2-1-2.2-2.2c0-1.2,1-2.2,2.2-2.2s2.2,1,2.2,2.2C-78.1,446.6-79,447.5-80.2,447.5z
			 M-80.2,444.5c-0.5,0-0.8,0.4-0.8,0.8c0,0.5,0.4,0.8,0.8,0.8s0.8-0.4,0.8-0.8C-79.4,444.9-79.7,444.5-80.2,444.5z"/>
		<path class="st9" d="M-96.1,416c-0.1,0-0.3,0.1-0.4,0.2c-0.1,0.1-0.2,0.3-0.2,0.4v1.6c0,0.1,0.1,0.3,0.2,0.4
			c0.1,0.1,0.3,0.2,0.4,0.2h31.7c0.1,0,0.3-0.1,0.4-0.2c0.1-0.1,0.2-0.3,0.2-0.4v-1.6c0-0.1-0.1-0.3-0.2-0.4
			c-0.1-0.1-0.3-0.2-0.4-0.2H-96.1z"/>
		<path class="st9" d="M-63.8,440.7c0-0.1-0.1-0.3-0.2-0.4c-0.1-0.1-0.3-0.2-0.4-0.2h-31.7c-0.1,0-0.3,0.1-0.4,0.2
			c-0.1,0.1-0.2,0.3-0.2,0.4v0.1c0,0.1,0.1,0.3,0.2,0.4c0.1,0.1,0.3,0.2,0.4,0.2h31.7c0.1,0,0.3-0.1,0.4-0.2
			C-63.9,441.1-63.8,440.9-63.8,440.7L-63.8,440.7z"/>
	</g>
	<g>
		<g>
			<path class="st14" d="M-81.6,429.4c0,1.2-0.5,2.3-1.3,3l2.2,2.2c1.3-1.3,2.2-3.2,2.2-5.2C-78.5,429.4-81.6,429.4-81.6,429.4z"/>
			<path class="st9" d="M-82.9,432.5c-0.8,0.8-1.8,1.3-3,1.3c-2.4,0-4.3-1.9-4.3-4.3c0-1.8,1.1-3.3,2.6-4l-1.2-2.8
				c-2.7,1.1-4.5,3.7-4.5,6.8c0,4.1,3.3,7.4,7.4,7.4c2,0,3.9-0.8,5.2-2.2L-82.9,432.5z"/>
			<path class="st20" d="M-85.9,425.2v-3.1c-1,0-1.9,0.2-2.8,0.6l1.2,2.8C-87.1,425.3-86.5,425.2-85.9,425.2z"/>
			<path class="st19" d="M-85.9,425.2c2.4,0,4.3,1.9,4.3,4.3l0,0h3.1c0-4.1-3.3-7.4-7.4-7.4L-85.9,425.2L-85.9,425.2z"/>
		</g>
		<g>
			<rect x="-76.2" y="422.1" class="st9" width="1.3" height="1.3"/>
			<rect x="-73.6" y="422.1" class="st19" width="1.3" height="1.3"/>
			<rect x="-71" y="422.1" class="st14" width="1.3" height="1.3"/>
			<rect x="-68.4" y="422.1" class="st20" width="1.3" height="1.3"/>
		</g>
		<g>
			<rect x="-76.2" y="435.5" class="st14" width="9.1" height="1.3"/>
			<rect x="-76.2" y="432.9" class="st14" width="9.1" height="1.3"/>
			<rect x="-76.2" y="430.3" class="st14" width="9.1" height="1.3"/>
			<rect x="-76.2" y="427.7" class="st14" width="9.1" height="1.3"/>
		</g>
	</g>
</g>
<path class="st10" d="M-268,302.8l16,15.3c1.6-3.7,2.5-7.7,2.5-12c0-16.5-13.4-29.9-29.9-29.9s-29.9,13.4-29.9,29.9
	c0,16,12.7,29.1,28.5,29.8l-15.2-14L-268,302.8z"/>
<path class="st5" d="M-252,318.2l-16-15.4l-27.9,19.2l15.2,14c0.4,0,0.9,0,1.3,0C-267.1,336-256.6,328.7-252,318.2z"/>
<circle class="st11" cx="-278.3" cy="316.1" r="11.5"/>
<path class="st21" d="M-275.8,326.1c-2.3,0-4.6-0.1-6.5-0.2c1.1,0.4,2.3,0.6,3.5,0.6C-277.7,326.5-276.7,326.4-275.8,326.1z"/>
<path class="st2" d="M-261.7,316.3c0,0-0.3-14.1-10.6-14.7c-13.9-0.8-17.5-1-20.9,5.1c-3.2,5.7-8.8,18.7,6.4,19.1c0,0,0.6,0,1.6,0.1
	c-3.3-2.1-5.4-5.8-5.4-10c0-6.6,5.4-11.9,11.9-11.9s11.9,5.2,11.9,11.8c0,4.4-2.4,8.2-5.9,10.3c2.6,0,4.9-0.1,6.2-0.4
	C-262.3,324.9-261.5,319.3-261.7,316.3z"/>
<path class="st11" d="M-278.7,303.9c-6.6,0-11.9,5.4-11.9,11.9c0,4.2,2.2,7.9,5.4,10c1.9,1.2,4.1,2,6.5,2c2.2,0,4.3-0.6,6-1.7
	c3.5-2.1,5.9-5.9,5.9-10.3C-266.8,309.2-272.2,303.9-278.7,303.9z M-275.8,326.1c-1,0.3-2,0.4-3,0.4c-1.2,0-2.4-0.2-3.5-0.6
	c-4.2-1.5-7.2-5.4-7.2-10.1c0-5.9,4.8-10.7,10.7-10.7c5.9,0,10.8,4.8,10.8,10.7C-268,320.7-271.3,324.8-275.8,326.1z"/>
<path class="st2" d="M-286.6,302.2c11.8-0.1,14.9-1.1,20.4,7.3c-16.1,2.8-20.4-5.5-20.4-5.5v-1.5"/>
<path class="st2" d="M-283.6,302.1c0,0,0.1,10.2-6.6,12.7C-296.8,317.4-291,304.4-283.6,302.1z"/>
<circle class="st2" cx="-282.3" cy="314.1" r="1.4"/>
<circle class="st2" cx="-274.7" cy="314.1" r="1.4"/>
<path class="st22" d="M-290.1,299.6c0,0,10.9-3.9,21.8,0l5.5-9.1c0,0-15.4-16.5-32.1-0.6C-291.8,296.4-290.1,299.6-290.1,299.6z"/>
<rect x="-280.3" y="285.9" class="st1" width="2.8" height="8.1"/>
<rect x="-283" y="288.6" class="st1" width="8.1" height="2.8"/>
<circle class="st12" cx="-186.3" cy="460.5" r="29.6"/>
<path class="st2" d="M-157.5,466.9l-15.8-15.8l-0.9-0.9c-1.6-1.4-3.6-2.2-5.8-2.2c-0.5,0-0.9,0-1.4,0.1c-0.4,0.1-0.9,0.2-1.3,0.3
	c-1.4,0.4-2.7,1.2-3.7,2.2c-1.6-1.6-3.9-2.6-6.3-2.6c-4.9,0-8.9,4-8.9,8.9c0,2.5,1,4.7,2.6,6.3l24.3,24.3
	C-166,484-159.5,476.3-157.5,466.9z"/>
<g>
	
		<rect x="-195.3" y="454.4" transform="matrix(-0.7071 0.7071 -0.7071 -0.7071 9.562 922.7828)" class="st0" width="17.9" height="17.9"/>
	<circle class="st0" cx="-192.6" cy="457" r="8.9"/>
</g>
<path class="st1" d="M-180,448.1c-2.5,0-4.7,1-6.3,2.6V476l12.6-12.6l0,0c1.6-1.6,2.6-3.9,2.6-6.3
	C-171.1,452.1-175.1,448.1-180,448.1z"/>
<g>
	<g>
		<path class="st3" d="M-183.9,470.2c-0.3,0-0.6-0.2-0.6-0.6l-1.6-13.7l-1.5,7.5c-0.1,0.3-0.3,0.5-0.6,0.5s-0.6-0.2-0.6-0.5
			l-0.9-3.1l-0.8,1.4c-0.1,0.2-0.3,0.3-0.6,0.3h-15.4v-1.3h15.1l1.4-2.4c0.1-0.2,0.3-0.3,0.6-0.3c0.3,0,0.5,0.2,0.6,0.5l0.6,2
			l1.8-8.8c0.1-0.3,0.3-0.5,0.6-0.5s0.6,0.3,0.6,0.6l1.6,13.5l0.8-4c0-0.2,0.2-0.4,0.4-0.5c0.1,0,0.1,0,0.2,0c0.2,0,0.3,0.1,0.4,0.2
			l2.3,1.9l1.3-5.7c0.1-0.3,0.3-0.5,0.6-0.5l0,0c0.3,0,0.5,0.2,0.6,0.5l0.9,3h10.1v1.3h-10.7c-0.3,0-0.5-0.2-0.6-0.5l-0.3-1.1
			l-1,4.4c0,0.2-0.2,0.4-0.4,0.5c-0.1,0-0.1,0-0.2,0c-0.2,0-0.3-0.1-0.4-0.2l-2.2-1.9l-1.3,7C-183.3,469.9-183.6,470.2-183.9,470.2
			L-183.9,470.2z"/>
		<path class="st3" d="M-185.9,451.4L-185.9,451.4c0.3,0,0.5,0.2,0.5,0.5l1.7,14.3l0.9-4.8c0-0.2,0.2-0.3,0.3-0.4c0.1,0,0.1,0,0.2,0
			s0.2,0,0.3,0.1l2.4,2.1l1.3-5.9c0.1-0.2,0.2-0.4,0.5-0.4l0,0c0.2,0,0.4,0.1,0.5,0.4l0.9,3.1h10.1v1h-10.4c-0.2,0-0.4-0.1-0.5-0.4
			l-0.5-1.6l-1.1,4.9c0,0.2-0.2,0.3-0.3,0.4c-0.1,0-0.1,0-0.2,0c-0.1,0-0.2,0-0.3-0.1l-2.4-2.1l-1.4,7.2c0,0.2-0.3,0.4-0.5,0.4l0,0
			c-0.3,0-0.5-0.2-0.5-0.5l-1.7-14.4l-1.7,8.3c0,0.2-0.2,0.4-0.5,0.4l0,0c-0.2,0-0.4-0.2-0.5-0.4l-0.9-3.4l-0.9,1.7
			c-0.1,0.1-0.3,0.2-0.4,0.2h-15.4v-1h15l1.4-2.5c0.1-0.2,0.3-0.3,0.5-0.3c0,0,0,0,0.1,0c0.2,0,0.4,0.2,0.4,0.4l0.7,2.5l1.9-9.3
			C-186.4,451.5-186.2,451.4-185.9,451.4 M-185.9,451.1c-0.4,0-0.7,0.3-0.7,0.6l-1.7,8.3l-0.4-1.5c-0.1-0.3-0.3-0.5-0.6-0.6h-0.1
			c-0.3,0-0.5,0.1-0.7,0.4l-1.3,2.4h-15h-0.3v0.3v1v0.3h0.3h15.4c0.3,0,0.5-0.2,0.7-0.4l0.6-1.1l0.8,2.8c0.1,0.3,0.4,0.6,0.7,0.6
			c0.4,0,0.7-0.3,0.7-0.6l1.3-6.7l1.5,12.9c0,0.4,0.3,0.7,0.7,0.7l0,0c0.4,0,0.7-0.3,0.8-0.6l1.3-6.7l2.1,1.8
			c0.1,0.1,0.3,0.2,0.5,0.2c0.1,0,0.2,0,0.2,0c0.3-0.1,0.4-0.3,0.5-0.6l0.9-3.9l0.2,0.7c0.1,0.3,0.4,0.5,0.7,0.5h10.5h0.3v-0.3v-1
			v-0.3h-0.3h-9.9l-0.8-3.2c-0.1-0.3-0.4-0.5-0.7-0.5c-0.4,0-0.7,0.3-0.7,0.6l-1.3,5.5l-2.1-1.8c-0.1-0.1-0.3-0.2-0.5-0.2
			c-0.1,0-0.2,0-0.3,0c-0.3,0.1-0.4,0.3-0.5,0.6l-0.6,3.2l-1.5-12.7C-185.2,451.4-185.5,451.1-185.9,451.1L-185.9,451.1
			L-185.9,451.1L-185.9,451.1z"/>
	</g>
</g>
<path class="st11" d="M-10.3,207.5l19.1,13.7c-0.3-16-13.4-28.9-29.5-28.9c-16.3,0-29.5,13.2-29.5,29.5s13.2,29.5,29.5,29.5
	c4.9,0,9.4-1.2,13.5-3.2l-23-15.1L-10.3,207.5z"/>
<path class="st15" d="M8.8,221.7c0-0.2,0-0.4,0-0.6l-19.1-13.7l-19.9,25.4l23,15.1C2.3,243.1,8.8,233.2,8.8,221.7z"/>
<path class="st3" d="M-10.9,215.8c2-3,1.1-7.1-1.9-9.1l0,0c-3-2-7.1-1.1-9.1,1.9l-5.1,7.8l10.9,7.2L-10.9,215.8z"/>
<circle class="st1" cx="-9.2" cy="230.6" r="6"/>
<g>
	<rect x="-13.7" y="230.1" class="st3" width="8.9" height="1"/>
	<path class="st3" d="M-4.5,231.3h-9.4v-1.5h9.4V231.3z M-13.4,230.8H-5v-0.5h-8.4V230.8z"/>
</g>
<g>
	<path class="st5" d="M-26.6,234.7c-1.4,0-2.9-0.4-4.1-1.3c-1.6-1.1-2.7-2.7-3.1-4.7c-0.4-1.9,0-3.9,1.1-5.5l10.5-15.5
		c1.1-1.6,2.7-2.7,4.7-3.1c1.9-0.4,3.9,0,5.5,1.1c3.3,2.3,4.2,6.8,1.9,10.1l-10.5,15.5c-1.1,1.6-2.7,2.7-4.7,3.1
		C-25.7,234.7-26.1,234.7-26.6,234.7z M-16,206.2c-0.4,0-0.7,0-1.1,0.1c-1.5,0.3-2.8,1.2-3.7,2.4l-10.5,15.5
		c-0.9,1.3-1.2,2.8-0.9,4.3s1.2,2.8,2.4,3.7c1.3,0.9,2.8,1.2,4.3,0.9s2.8-1.2,3.7-2.4l10.5-15.5c1.8-2.6,1.1-6.2-1.5-8
		C-13.8,206.5-14.9,206.2-16,206.2z"/>
</g>
<path class="st5" d="M-31.8,224c-2,3-1.1,7.1,1.9,9.1l0,0c3,2,7.1,1.1,9.1-1.9l5.1-7.8l-10.9-7.2L-31.8,224z"/>
<g>
	<path class="st3" d="M-26.1,233.3c-0.6,0-1.2-0.1-1.9-0.4l-0.7-0.3l0.6-1.4l0.7,0.3c2.8,1.2,4.4-1.3,7-5.7c0.4-0.7,0.9-1.5,1.4-2.3
		l0.4-0.6l1.3,0.8l-0.4,0.6c-0.5,0.7-0.9,1.5-1.3,2.2C-21.2,230-23.1,233.3-26.1,233.3z"/>
</g>
<circle class="st23" cx="-395.5" cy="211.5" r="74.4"/>
<circle class="st11" cx="-244.9" cy="397.1" r="29.8"/>
<path class="st15" d="M-215.1,397c0-0.1,0-0.2,0-0.3l-15.3-11.1l-29.8,26.8l19.4,14.2C-226.3,424.5-215.1,412.1-215.1,397z"/>
<path class="st24" d="M-233.9,413h-23.8c-2.4,0-4.4-2-4.4-4.4v-20.2c0-2.4,2-4.4,4.4-4.4h23.8c2.4,0,4.4,2,4.4,4.4v20.2
	C-229.5,411-231.5,413-233.9,413z"/>
<g>
	<path class="st25" d="M-255.7,388.9c-1.1,0-1.9-0.9-1.9-1.9v-4.8c0-1.1,0.9-1.9,1.9-1.9h0.8c1.1,0,1.9,0.9,1.9,1.9v4.8
		c0,1.1-0.9,1.9-1.9,1.9H-255.7z"/>
	<path class="st11" d="M-254.9,380.7c0.8,0,1.4,0.6,1.4,1.4v4.8c0,0.8-0.6,1.4-1.4,1.4h-0.8c-0.8,0-1.4-0.6-1.4-1.4v-4.8
		c0-0.8,0.6-1.4,1.4-1.4H-254.9 M-254.9,379.7h-0.8c-1.3,0-2.4,1.1-2.4,2.4v4.8c0,1.3,1.1,2.4,2.4,2.4h0.8c1.3,0,2.4-1.1,2.4-2.4
		v-4.8C-252.5,380.8-253.5,379.7-254.9,379.7L-254.9,379.7z"/>
</g>
<g>
	<path class="st25" d="M-246.1,388.9c-1.1,0-1.9-0.9-1.9-1.9v-4.8c0-1.1,0.9-1.9,1.9-1.9h0.8c1.1,0,1.9,0.9,1.9,1.9v4.8
		c0,1.1-0.9,1.9-1.9,1.9H-246.1z"/>
	<path class="st11" d="M-245.3,380.7c0.8,0,1.4,0.6,1.4,1.4v4.8c0,0.8-0.6,1.4-1.4,1.4h-0.8c-0.8,0-1.4-0.6-1.4-1.4v-4.8
		c0-0.8,0.6-1.4,1.4-1.4H-245.3 M-245.3,379.7h-0.8c-1.3,0-2.4,1.1-2.4,2.4v4.8c0,1.3,1.1,2.4,2.4,2.4h0.8c1.3,0,2.4-1.1,2.4-2.4
		v-4.8C-242.9,380.8-244,379.7-245.3,379.7L-245.3,379.7z"/>
</g>
<g>
	<path class="st25" d="M-236.7,388.9c-1.1,0-1.9-0.9-1.9-1.9v-4.8c0-1.1,0.9-1.9,1.9-1.9h0.8c1.1,0,1.9,0.9,1.9,1.9v4.8
		c0,1.1-0.9,1.9-1.9,1.9H-236.7z"/>
	<path class="st11" d="M-235.9,380.7c0.8,0,1.4,0.6,1.4,1.4v4.8c0,0.8-0.6,1.4-1.4,1.4h-0.8c-0.8,0-1.4-0.6-1.4-1.4v-4.8
		c0-0.8,0.6-1.4,1.4-1.4H-235.9 M-235.9,379.7h-0.8c-1.3,0-2.4,1.1-2.4,2.4v4.8c0,1.3,1.1,2.4,2.4,2.4h0.8c1.3,0,2.4-1.1,2.4-2.4
		v-4.8C-233.5,380.8-234.6,379.7-235.9,379.7L-235.9,379.7z"/>
</g>
<rect x="-259" y="392.5" class="st3" width="26.3" height="17.5"/>
<g>
	<path class="st25" d="M-253.3,405.3v-1.4c3.4-2.5,4.4-3.4,4.4-4.4c0-0.7-0.7-1.1-1.3-1.1c-0.9,0-1.7,0.4-2.2,1l-1-1.2
		c0.8-0.9,2-1.4,3.2-1.4c1.8,0,3.2,1,3.2,2.7c0,1.4-1.2,2.7-3.3,4.2h3.4v1.6C-246.9,405.3-253.3,405.3-253.3,405.3z"/>
	<path class="st25" d="M-245.6,404.6l0.8-1.4c0.4,0.4,0.9,0.6,1.7,0.6c1.4,0,2.1-1.1,2.1-2.3c0-0.1,0-0.1,0-0.2
		c-0.4,0.6-1.2,1.1-2.1,1.1c-1.5,0-2.8-0.9-2.8-2.7c0-1.6,1.3-2.9,3.2-2.9c2.5,0,3.6,1.9,3.6,4.3c0,2.5-1.4,4.3-3.9,4.3
		C-244.1,405.4-245,405.1-245.6,404.6z M-241.1,400.1c-0.1-0.8-0.5-1.7-1.7-1.7c-0.9,0-1.5,0.6-1.5,1.2c0,0.9,0.8,1.2,1.5,1.2
		C-242.1,400.9-241.5,400.6-241.1,400.1z"/>
</g>
<polygon class="st25" points="-359.2,183.2 -283,238.5 -358.4,304.5 -433.3,249.8 "/>
<circle class="st11" cx="93.5" cy="398.4" r="29.8"/>
<path class="st15" d="M123.2,400.1l-17.4-17.4l0,0l0,0c-0.4-0.4-0.9-0.6-1.5-0.6h-5.1H80.5c-1.2,0-2.1,0.9-2.1,2.1
	c0,0.1,0,0.2,0,0.3c0,0,0,0,0,0.1s0,0.2,0.1,0.3c0,0,0,0,0,0.1s0.1,0.2,0.1,0.3c0,0,0,0,0,0.1s0.1,0.1,0.1,0.2l0,0l0,0l0,0
	c0.1,0.1,0.1,0.1,0.2,0.2l0,0l3.5,3.5v23.3c0,0.5,0.2,1,0.5,1.3l0,0l0.2,0.2l13.8,13.8C111.3,426.2,122.4,414.5,123.2,400.1z"/>
<g>
	<g>
		<path class="st3" d="M80.5,382.1c1.2,0,2.1,0.9,2.1,2.1v28.4c0,1.2,0.9,2.1,2.1,2.1h21.7v-30.5c0-0.5-0.2-1.1-0.6-1.5
			c-0.4-0.4-1-0.6-1.5-0.6H80.5z"/>
		<path class="st4" d="M108.6,412.6c0-1.2-0.9-2.1-2.1-2.1H84.8c1.2,0,2.1,0.9,2.1,2.1c0,1.2-0.9,2.1-2.1,2.1h21.7
			C107.6,414.7,108.6,413.8,108.6,412.6z"/>
		<path class="st4" d="M80.5,382.1c-1.2,0-2.1,0.9-2.1,2.1c0,1.2,0.9,2.1,2.1,2.1h2.1v-2.1C82.6,383,81.7,382.1,80.5,382.1z"/>
	</g>
	<g>
		<rect x="90.9" y="390.7" class="st4" width="7.3" height="1"/>
		<rect x="88.8" y="387.8" class="st2" width="11.5" height="1"/>
		<rect x="86.3" y="392.6" class="st4" width="16.5" height="1"/>
		<rect x="86.3" y="394.5" class="st4" width="16.5" height="1"/>
		<rect x="86.3" y="396.4" class="st4" width="16.5" height="1"/>
		<rect x="86.3" y="398.4" class="st4" width="16.5" height="1"/>
		<rect x="86.3" y="400.3" class="st4" width="16.5" height="1"/>
		<rect x="86.3" y="404.2" class="st4" width="8.3" height="1"/>
	</g>
	<g>
		<polygon class="st2" points="101.6,404.6 99.4,404.6 99.4,409 100.5,407.9 101.6,409 		"/>
		<polygon class="st1" points="102.8,403.9 102.1,403.5 101.9,402.7 101.1,402.7 100.5,402.2 99.9,402.7 99.1,402.7 98.9,403.5 
			98.2,403.9 98.5,404.6 98.2,405.4 98.9,405.8 99.1,406.6 99.9,406.5 100.5,407.1 101.1,406.5 101.9,406.6 102.1,405.8 
			102.8,405.4 102.5,404.6 		"/>
		<path class="st16" d="M102,404.6c0,0.8-0.7,1.5-1.5,1.5s-1.5-0.7-1.5-1.5c0-0.8,0.7-1.5,1.5-1.5C101.4,403.1,102,403.8,102,404.6z
			"/>
	</g>
</g>
<g>
	<circle class="st0" cx="-329" cy="504.5" r="30"/>
	<path class="st1" d="M-313.3,490.9c-0.2-0.2-0.6-0.4-0.9-0.4H-344c-0.3,0-0.6,0.1-0.9,0.4c-0.2,0.2-0.4,0.6-0.4,0.9v18.1
		c-0.3,0-0.7,0.1-0.9,0.4c-0.2,0.2-0.4,0.5-0.4,0.9c0,0.3,0.1,0.6,0.3,0.8l0.1,0.1l5.9,5.9l1,1l-1,1l14.3,14.3
		c14.9-1.6,26.5-14,26.8-29.2L-313.3,490.9z"/>
	<g>
		<g>
			<g>
				<rect x="-340.2" y="512.4" class="st2" width="2.5" height="7.6"/>
				<rect x="-320.5" y="512.4" class="st2" width="2.5" height="7.6"/>
				<rect x="-337.6" y="515" class="st2" width="17.2" height="2.5"/>
			</g>
		</g>
		<path class="st2" d="M-312.9,509.9h-32.3v-18.1c0-0.3,0.1-0.6,0.4-0.9c0.2-0.2,0.6-0.4,0.9-0.4h29.8c0.3,0,0.6,0.1,0.9,0.4
			c0.2,0.2,0.4,0.6,0.4,0.9v18.1H-312.9z"/>
		<path class="st26" d="M-311.6,511.2c0,0.7-0.6,1.3-1.3,1.3h-32.3c-0.7,0-1.3-0.6-1.3-1.3l0,0c0-0.7,0.6-1.3,1.3-1.3h32.3
			C-312.2,509.9-311.6,510.5-311.6,511.2L-311.6,511.2z"/>
		<rect x="-342.7" y="493.1" class="st5" width="27.3" height="16.8"/>
		<g>
			<g>
				<rect x="-335.1" y="502" class="st3" width="3.8" height="1"/>
				<rect x="-335.1" y="499.9" class="st3" width="3.8" height="1"/>
			</g>
			<g>
				<path class="st3" d="M-325.2,504.1h-1v-3.6c0-0.1-0.1-0.3-0.2-0.4s-0.2-0.2-0.4-0.2c-0.2,0-0.3,0.1-0.4,0.2
					c-0.1,0.1-0.2,0.2-0.2,0.4v0.5h-1v-0.5c0-0.4,0.2-0.8,0.5-1.1c0.3-0.3,0.7-0.5,1.1-0.5c0.4,0,0.8,0.2,1.1,0.5s0.5,0.7,0.5,1.1
					C-325.2,500.5-325.2,504.1-325.2,504.1z"/>
				<path class="st3" d="M-327.3,504.1h-1v-3.6c0-0.1-0.1-0.3-0.2-0.4s-0.2-0.2-0.4-0.2c-0.2,0-0.3,0.1-0.4,0.2
					c-0.1,0.1-0.2,0.2-0.2,0.4v3.6h-1v-3.6c0-0.4,0.2-0.8,0.5-1.1s0.7-0.5,1.1-0.5s0.8,0.2,1.1,0.5c0.3,0.3,0.5,0.7,0.5,1.1
					C-327.3,500.5-327.3,504.1-327.3,504.1z"/>
			</g>
			<g>
				<path class="st3" d="M-336.1,504.1h-3.3c-0.3,0-0.5-0.2-0.5-0.5v-4.2c0-0.3,0.2-0.5,0.5-0.5h3.3v1h-2.8v3.2h2.8
					C-336.1,503.1-336.1,504.1-336.1,504.1z"/>
				<rect x="-339.9" y="501" class="st3" width="2.4" height="1"/>
			</g>
			<path class="st3" d="M-319.5,499.1c0-0.1,0-0.1,0.1-0.2c0.1,0,0.1-0.1,0.2-0.1h0.3c0.2,0,0.4-0.1,0.5-0.2s0.2-0.3,0.2-0.5
				s-0.1-0.4-0.2-0.5s-0.3-0.2-0.5-0.2h-0.3c-0.2,0-0.4,0.1-0.5,0.2c-0.1,0.1-0.2,0.3-0.2,0.5h0.5c0-0.1,0-0.1,0.1-0.2
				c0.1,0,0.1-0.1,0.2-0.1h0.3c0.1,0,0.1,0,0.2,0.1c0.1,0,0.1,0.1,0.1,0.2s0,0.1-0.1,0.2c0,0-0.1,0.1-0.2,0.1h-0.3
				c-0.2,0-0.4,0.1-0.5,0.2s-0.2,0.3-0.2,0.5v0.5c0,0.1,0.1,0.2,0.2,0.2h1.6v-0.5h-1.3v-0.2H-319.5z"/>
			<path class="st3" d="M-322,504.1h-0.7c-0.4,0-0.8-0.2-1.1-0.5c-0.3-0.3-0.5-0.7-0.5-1.1v-2.1c0-0.4,0.2-0.8,0.5-1.1
				c0.3-0.3,0.7-0.5,1.1-0.5h0.7c0.4,0,0.8,0.2,1.1,0.5c0.3,0.3,0.5,0.7,0.5,1.1v0.5h-1v-0.5c0-0.1-0.1-0.3-0.2-0.4
				c-0.1-0.1-0.2-0.2-0.4-0.2h-0.7c-0.1,0-0.3,0.1-0.4,0.2c-0.1,0.1-0.2,0.2-0.2,0.4v2.1c0,0.1,0.1,0.3,0.2,0.4s0.2,0.2,0.4,0.2h0.7
				c0.1,0,0.3-0.1,0.4-0.2s0.2-0.2,0.2-0.4V502h1v0.5c0,0.4-0.2,0.8-0.5,1.1C-321.2,503.9-321.6,504.1-322,504.1z"/>
		</g>
		<rect x="-321.7" y="508.9" class="st3" width="3.8" height="1"/>
	</g>
</g>
<g>
	<circle class="st12" cx="-434.8" cy="373.6" r="29.9"/>
	<path class="st2" d="M-405.7,380.5l-18.3-18.3l-0.2-0.2c-0.2-0.1-0.4-0.2-0.6-0.2h-2.4h-23.9c-0.3,0-0.5,0.1-0.7,0.3
		c-0.2,0.2-0.3,0.5-0.3,0.7v16.4c0,0.3,0.1,0.5,0.3,0.7l3,3v2.4l0,0l17.8,17.8C-418.6,401.7-408.5,392.5-405.7,380.5z"/>
	<g>
		<g>
			<path class="st3" d="M-451.1,380.3c-0.3,0-0.5-0.1-0.7-0.3c-0.2-0.2-0.3-0.5-0.3-0.7v-16.5c0-0.3,0.1-0.5,0.3-0.7
				c0.2-0.2,0.5-0.3,0.7-0.3h26.2c0.3,0,0.5,0.1,0.7,0.3c0.2,0.2,0.3,0.5,0.3,0.7v16.4c0,0.3-0.1,0.5-0.3,0.7
				c-0.2,0.2-0.5,0.3-0.7,0.3L-451.1,380.3L-451.1,380.3z"/>
			<polygon class="st3" points="-443.6,380.3 -448.8,380.3 -448.8,385.5 			"/>
		</g>
		<g>
			<g>
				<g>
					<path class="st2" d="M-437.5,374.5h-1.4c-0.4,0-0.7-0.3-0.7-0.7v-6.3h1.3v1.4h0.8c0.6,0,1.1,0.2,1.5,0.6
						c0.4,0.4,0.6,0.9,0.6,1.5v1.4c0,0.6-0.2,1.1-0.6,1.5C-436.4,374.3-436.9,374.5-437.5,374.5z M-438.3,373.2h0.8
						c0.2,0,0.4-0.1,0.5-0.2s0.2-0.3,0.2-0.5V371c0-0.2-0.1-0.4-0.2-0.5c-0.1-0.1-0.3-0.2-0.5-0.2h-0.8V373.2z"/>
				</g>
				<path class="st2" d="M-431.6,374.5h-0.7c-0.5,0-0.9-0.2-1.2-0.5s-0.5-0.8-0.5-1.2v-2.1c0-0.5,0.2-0.9,0.5-1.2s0.8-0.5,1.2-0.5
					h0.7c0.5,0,0.9,0.2,1.2,0.5c0.3,0.3,0.5,0.8,0.5,1.2v0.7h-1.3v-0.7c0-0.1,0-0.2-0.1-0.3s-0.2-0.1-0.3-0.1h-0.7
					c-0.1,0-0.2,0-0.3,0.1c-0.1,0.1-0.1,0.2-0.1,0.3v2.2c0,0.1,0,0.2,0.1,0.3c0.1,0.1,0.2,0.1,0.3,0.1h0.7c0.1,0,0.2,0,0.3-0.1
					c0.1-0.1,0.1-0.2,0.1-0.3v-0.8h1.3v0.7c0,0.5-0.2,0.9-0.5,1.2C-430.7,374.4-431.1,374.5-431.6,374.5z"/>
				<g>
					<path class="st2" d="M-440.9,374.5h-1.3v-5c0-0.2-0.1-0.4-0.2-0.5s-0.3-0.2-0.5-0.2h-1c-0.2,0-0.4,0.1-0.5,0.2
						s-0.2,0.3-0.2,0.5v5h-1.3v-5c0-0.6,0.2-1.1,0.6-1.5c0.4-0.4,0.9-0.6,1.5-0.6h1c0.6,0,1.1,0.2,1.5,0.6s0.6,0.9,0.6,1.5v5H-440.9
						z"/>
					<rect x="-446.1" y="370.3" class="st2" width="5.2" height="1.3"/>
				</g>
			</g>
		</g>
		<g>
			<path class="st5" d="M-417.4,379c0,3.5-2.8,6.4-6.4,6.4c-3.5,0-6.4-2.8-6.4-6.4c0-3.5,2.8-6.4,6.4-6.4
				C-420.3,372.6-417.4,375.5-417.4,379z"/>
			<path class="st3" d="M-425.3,384.3L-425.3,384.3c0.1,0,0,0-0.1-0.1c0,0-0.2-0.1-0.1,0c0,0,0,0,0.1,0l0,0c0,0-0.2-0.1,0-0.1
				c-0.2-0.1,0-0.1,0-0.2s0.1-0.1,0-0.2h-0.1c-0.1,0,0-0.1,0.1-0.1c0,0,0-0.1,0-0.2c0,0-0.1-0.1-0.1-0.2c0,0,0.2,0.1,0.2,0
				c0,0-0.1-0.1,0-0.2c0.1,0,0.5,0,0.4-0.2c0-0.1-0.2-0.2-0.2-0.2c0.1,0,0.2,0.1,0.2,0.1c0.1,0,0.1,0,0.2,0l0.1-0.1c0,0,0,0,0,0.1
				c0,0,0-0.1,0.1-0.1l0,0c0-0.1,0.2-0.3,0.2-0.3c0.1-0.1,0-0.3,0.1-0.4c0.1-0.1,0.2-0.1,0.3-0.2l0.2-0.1c0.2,0.1,0.2-0.2,0.3-0.3
				s0-0.7,0.1-0.7s0.2-0.2,0.3-0.4c0.1-0.1,0.1-0.2,0.1-0.3c-0.1-0.2-0.1-0.1-0.2-0.2c-0.1-0.1-0.2-0.2-0.3-0.2c-0.1,0-0.2,0-0.2,0
				s-0.1-0.1-0.2,0h-0.1v-0.1l-0.2-0.1c-0.1,0-0.1,0.1-0.2-0.1c-0.1,0-0.2-0.1-0.2-0.2c0,0-0.2-0.4-0.2-0.3c0-0.1-0.4-0.3-0.4-0.2
				c-0.1,0.1-0.2-0.1-0.3-0.1c-0.1-0.1-0.1-0.1-0.1-0.2c0,0-0.1,0-0.1-0.1c0-0.1-0.2-0.1-0.2-0.2h0.1c-0.1,0-0.2,0-0.2,0
				c-0.1,0.1-0.2,0-0.3,0c-0.1,0,0,0-0.1-0.1c0,0-0.2-0.1-0.1-0.1v0.1c-0.1,0-0.1,0-0.1,0.1c0.1,0.2-0.2,0.1-0.1,0
				c0,0,0-0.2,0.1-0.2c0,0-0.3,0.1-0.3,0.2c-0.1-0.1-0.2,0.3-0.2,0.3c0-0.1-0.1-0.1-0.2-0.2c-0.1,0-0.1,0.1-0.2,0.1
				c-0.2-0.2-0.1-0.5,0-0.7c0-0.1-0.3-0.1-0.4-0.1c-0.1,0.1,0-0.1,0-0.1c0-0.1,0-0.1,0.1-0.1c0-0.1,0.2-0.3,0.1-0.3
				c-0.1-0.1-0.3,0.1-0.3,0.2s-0.1,0.1-0.1,0.1h-0.1c-0.1,0.1-0.2,0-0.2-0.1c0-0.2,0-0.5,0.1-0.6c0.1,0,0.1-0.2,0.1-0.3l0.2-0.1h0.2
				c0,0,0.1,0.1,0.1,0v-0.1h-0.1h0.2c0.1,0,0.1,0.1,0.2,0c0.1-0.1,0,0.4,0.1,0.4v0.1c0.1,0,0.1-0.6,0.2-0.7c0.1-0.1,0.2-0.2,0.3-0.2
				c0,0,0.1-0.1,0.2-0.1l0,0h0.1c0,0,0,0,0-0.1v-0.1l0,0c0.1,0,0-0.1,0-0.1c0.1,0,0-0.1,0.1-0.1c-0.1,0,0,0.1,0,0.1
				c0,0.1,0.1-0.1,0.1-0.1c0.1,0,0.2-0.1,0.3-0.1c0,0,0,0-0.1,0c0.1,0,0.2,0,0.2-0.1s0-0.2,0.1-0.2s0.3-0.1,0.4-0.2l0,0
				c0-0.1-0.3,0.2-0.2,0.1c0.1-0.1,0.4-0.1,0.5-0.2v-0.1c-0.1,0-0.1,0.1-0.2,0.1c-0.2,0-0.1-0.1-0.1-0.2h-0.1c0,0,0.2-0.1,0.1-0.1
				c-0.2,0-0.3,0.2-0.5,0.2c0.1-0.1,0.3-0.2,0.4-0.2c0.2,0,0.4,0.1,0.5,0s0.2,0,0.3-0.2l-0.1-0.1l0,0c-0.2-0.1-0.2-0.2-0.2-0.4
				c-0.1,0.1-0.4,0.2-0.2,0c-0.1,0-0.2-0.2-0.3-0.1c0,0-0.1,0.1-0.1,0.2c-0.1,0.1,0,0-0.1,0.1s-0.2,0.1-0.3,0.2
				c0,0.1-0.1,0.1-0.1,0.2c-0.1,0-0.1,0-0.1-0.1c0,0,0,0,0.1,0l0,0l0.1-0.1c0,0-0.2,0-0.2-0.1c0-0.1-0.1,0-0.1-0.1
				c0.1-0.1,0.1-0.2,0.3-0.3c0.1,0,0.4-0.2,0.5-0.2c0,0,0,0-0.1,0.1h0.2c0,0-0.1-0.1,0-0.1h0.1c0.1,0,0.1,0,0.1-0.1
				c0,0,0.2-0.1,0.3-0.1c0.2,0.1-0.3,0.3-0.3,0.3s0.2,0,0.2,0.1l0.2,0.1c0,0,0-0.1-0.1-0.1c0.2,0.1,0.2,0,0.1-0.1c0-0.1,0.1,0,0.1,0
				l0.2-0.1c0,0-0.1,0-0.2-0.1c0,0,0.1,0,0-0.1c-0.1,0-0.1,0-0.1-0.1h-0.1l0,0h-0.1l0,0c-0.1,0-0.1,0-0.2,0.1c0,0,0.1,0,0.1-0.1
				c-0.1,0-0.2,0-0.2,0.1l0,0c-0.1,0.1-0.2,0.1-0.2,0.1c0-0.1,0.1,0,0.1-0.1h-0.1c0,0,0.1-0.1,0.2-0.1c-0.1,0-0.2,0.2-0.3,0.1
				c0,0,0.1,0,0.1-0.1c0,0-0.2,0.1-0.3,0.1c0,0,0.3-0.1,0.4-0.2h-0.1c0,0,0,0,0.1,0c-0.1,0-0.5,0.1-0.4,0.2h-0.1c0,0,0.1,0,0-0.1
				c-0.1,0-0.2,0.1-0.3,0.1c-0.2,0.1-0.5,0.2-0.7,0.4c-0.4,0.2-0.7,0.5-1,0.8c-0.2,0.2-0.8,0.9-0.8,1.1c0,0.1-0.1,0.2-0.1,0.3
				s0,0.2-0.1,0.3c-0.1,0.2-0.1,0.4-0.1,0.5c0.1,0,0.2-0.9,0.3-0.9l-0.1,0.4c-0.1,0.2,0,0.4,0,0.6v0.1c-0.1,0.1,0,0.2,0,0.2
				s0.2,0.2,0.3,0.3c0.1,0.1,0.1,0,0.2,0c0.1,0,0.1,0.2,0.1,0.2c0.1,0.1,0.3,0.1,0.3,0.1s0,0.2,0.1,0.2v-0.1l0.1,0.1h-0.1v0.2l0,0
				c0.1,0,0.1,0.2,0.1,0.2c0.1,0,0.1,0.1,0.2,0.1s0-0.2,0.1-0.2s0.1,0.2,0.2,0.3c0,0.1-0.1,0.3,0,0.3c0.1,0.1-0.1,0.2-0.1,0.3
				l-0.1,0.1c0,0,0,0.1,0,0.2s0,0.1,0.1,0.2c0,0-0.2,0.3-0.1,0.4c0.1,0.1,0.3,0.4,0.4,0.6c0.1,0.3,0.2,0.4,0.5,0.5
				c0.2,0.1,0.3,0.3,0.3,0.5c0,0.1,0,0.3,0,0.4s0,0.2,0,0.3s0,0.1,0,0.1c0,0.1,0.1,0.1,0.1,0.2c0,0.1,0,0.2,0,0.3v0.1
				c0,0,0.2,0.4,0.2,0.5c0,0,0.1,0,0-0.1c0.1-0.1,0.1,0.2,0.1,0.2c-0.1,0,0,0,0,0.1c0,0.1,0,0,0,0.1c0.1,0,0,0.1,0,0.1
				c0.1,0.1,0.2,0.2,0.3,0.3C-425.7,384.3-425.4,384.3-425.3,384.3L-425.3,384.3z M-424.9,374h-0.1H-424.9z M-425.2,373.9
				L-425.2,373.9C-425.1,374-425.3,374-425.2,373.9C-425.3,373.9-425.2,373.9-425.2,373.9L-425.2,373.9z M-425.5,374.2
				C-425.5,374.2-425.6,374.2-425.5,374.2L-425.5,374.2z M-425.7,373.8L-425.7,373.8L-425.7,373.8L-425.7,373.8z M-425.9,374.4
				C-425.9,374.4-425.8,374.4-425.9,374.4L-425.9,374.4z M-425.8,374.1C-426,374.3-425.9,374.1-425.8,374.1
				C-425.9,374.2-425.9,374.2-425.8,374.1C-426,374.2-425.8,374.1-425.8,374.1C-425.9,374.2-425.9,374.1-425.8,374.1z M-425.9,373.9
				C-425.9,374-425.9,374-425.9,373.9C-426,374-425.9,374-425.9,373.9z M-425.1,373.3L-425.1,373.3L-425.1,373.3L-425.1,373.3z
				 M-425,373.2C-425,373.3-425,373.2-425,373.2L-425,373.2z M-425.7,373.3L-425.7,373.3C-425.6,373.3-425.8,373.3-425.7,373.3
				L-425.7,373.3z M-425.7,373.3L-425.7,373.3C-425.8,373.3-425.8,373.3-425.7,373.3L-425.7,373.3z M-426.7,374.8c0,0-0.3,0.1-0.3,0
				l0.1-0.1C-426.8,374.8-426.6,374.8-426.7,374.8C-426.6,374.8-426.6,374.8-426.7,374.8C-426.7,374.9-426.6,374.8-426.7,374.8z
				 M-426.4,374.7c0.2,0-0.1,0.1-0.2,0.1C-426.6,374.7-426.5,374.7-426.4,374.7C-426.4,374.7-426.5,374.7-426.4,374.7z
				 M-426.5,373.3c0.1,0,0.1-0.1,0.2-0.1C-426.3,373.2-426.4,373.3-426.5,373.3L-426.5,373.3z M-426.5,374.5L-426.5,374.5
				L-426.5,374.5L-426.5,374.5z M-426.5,374.7C-426.5,374.7-426.6,374.7-426.5,374.7L-426.5,374.7z M-426.6,374.5
				C-426.5,374.6-426.6,374.7-426.6,374.5c0,0.1-0.1,0.2-0.2,0.2v-0.1h-0.1c0,0,0.2-0.2,0-0.2l-0.3,0.3l0.1-0.3
				C-426.9,374.5-426.7,374.5-426.6,374.5z M-426.8,373.5l0.1-0.1C-426.6,373.5-426.8,373.5-426.8,373.5L-426.8,373.5
				C-426.7,373.4-426.8,373.5-426.8,373.5z M-426.7,374.2C-426.7,374.2-426.8,374.3-426.7,374.2
				C-426.8,374.2-426.8,374.2-426.7,374.2L-426.7,374.2z M-426.9,373.6l0.2-0.1C-426.8,373.6-427,373.6-426.9,373.6z M-427,373.8
				L-427,373.8L-427,373.8z M-427.1,374.2c0,0,0.1-0.1,0-0.1c0,0-0.1,0,0,0c0,0,0.1-0.1,0.2-0.1C-426.9,374-427.1,374.2-427.1,374.2
				L-427.1,374.2C-427.1,374.1-427.1,374.2-427.1,374.2z M-427,374.4c0.1,0,0.2-0.1,0.3,0v0.1C-426.8,374.5-427,374.5-427,374.4
				c0,0.1-0.1,0.1-0.1,0.1C-427.1,374.4-427,374.4-427,374.4L-427,374.4z M-427.2,374.2L-427.2,374.2L-427.2,374.2z M-429,376.9
				C-429.1,376.9-429,376.9-429,376.9L-429,376.9z M-428.3,377.5C-428.3,377.5-428.2,377.4-428.3,377.5L-428.3,377.5z M-426.5,378.1
				C-426.5,378-426.4,378.1-426.5,378.1L-426.5,378.1z M-426.2,383.3C-426.2,383.3-426.1,383.3-426.2,383.3L-426.2,383.3z
				 M-426,380.7C-426.1,380.7-426,380.7-426,380.7L-426,380.7z M-426,382.3L-426,382.3L-426,382.3z M-425.8,384.1
				C-425.9,384.1-425.9,384.1-425.8,384.1L-425.8,384.1C-425.9,384.1-425.8,384.1-425.8,384.1z M-425.6,384.2L-425.6,384.2
				L-425.6,384.2L-425.6,384.2z M-426.1,383.5L-426.1,383.5L-426.1,383.5z M-425.5,373L-425.5,373L-425.5,373L-425.5,373z
				 M-427.7,374L-427.7,374L-427.7,374z M-427.6,373.9L-427.6,373.9L-427.6,373.9z M-417.5,377.9L-417.5,377.9
				c-0.1-0.5-0.2-0.9-0.4-1.4s-0.5-1-0.9-1.5c-0.3-0.4-0.7-0.8-1.2-1.1c-0.2-0.2-0.4-0.3-0.7-0.4c-0.1-0.1-0.2-0.1-0.3-0.2l-0.2-0.1
				l0.1,0.1c-0.1,0-0.2-0.1-0.2-0.1l0,0c-0.1-0.1-0.5-0.2-0.5-0.1l0.3,0.3c0,0.1,0.2,0.2,0.3,0.3c0.1,0.1,0,0,0.1-0.1
				c0,0,0.1,0.1,0.1,0l0,0c0,0,0,0,0-0.1c0,0,0.3,0.3,0.3,0.2c0-0.1-0.1-0.2-0.2-0.2c-0.1-0.1-0.2-0.1-0.3-0.1c0,0-0.2-0.1-0.2-0.2
				c0.2,0,0.4,0.4,0.6,0.3c0,0-0.1,0-0.1-0.1c0,0,0.2,0.1,0.1,0.1c-0.2,0,0.1,0.1,0.1,0.1s0,0-0.1,0c0,0.1,0.2,0.1,0.2,0.2
				c-0.1,0-0.1-0.1-0.1,0h-0.1c-0.1,0-0.2-0.2-0.3-0.2c0,0.1,0.1,0.1,0.2,0.2c0.1,0-0.1,0-0.1,0.1l0,0l0,0v0.2
				c0.1,0.1-0.1,0.1-0.1,0.1s0,0,0.1,0.1c-0.1,0-0.1,0-0.2,0c0.1,0,0.5,0.2,0.4,0.4c0,0.1-0.3,0-0.4,0c-0.1,0,0,0.1,0,0.1
				c0,0.1,0.1,0.1,0.1,0.2s0.1,0.1,0.1,0.1c0,0.1,0,0.1,0.1,0.1c0.1,0,0.1,0,0.2,0.1c0.1,0,0.1,0,0.2,0c0.2,0,0,0,0.1-0.1
				c0.1,0,0-0.2,0-0.2s0-0.1,0.1-0.1c0.1,0,0-0.1,0-0.1c0-0.1,0.3,0.1,0.2-0.1c0.2,0,0.3,0.2,0.5,0.3c0.1,0.1,0.2,0.1,0.2,0.2
				c0.1,0.1-0.1,0.1-0.1,0.1l0.2,0.1v-0.1c0-0.1-0.1-0.1-0.1-0.2h0.1c-0.1-0.1-0.2-0.1-0.3-0.2c-0.1-0.1-0.1-0.1-0.2-0.1
				c0,0-0.1-0.1,0-0.1s0.3,0.2,0.4,0.2c0.1,0.1,0.1,0.1,0.2,0.2l0.2,0.2c0,0,0.1,0.1,0.2,0.1c0-0.1,0-0.1-0.1-0.2
				c0-0.1-0.2-0.1-0.2-0.2c0,0,0,0,0.1,0c0,0,0-0.1,0,0c-0.1-0.1-0.3-0.3-0.4-0.4c0,0,0.1,0.1,0.1,0v-0.1l0.1,0.1h-0.1
				c0,0.1,0.1,0.1,0.1,0.1s0,0,0-0.1c0.1,0,0.3,0.2,0.4,0.3c0,0-0.1-0.1-0.2-0.1c0,0,0,0,0,0.1l0,0c0,0,0,0,0,0.1c0,0,0,0-0.1,0
				c0,0.1,0.3,0.4,0.4,0.3l0,0l0.1,0.1c0,0,0,0,0-0.1c0,0,0.2,0.4,0.3,0.4c0.1,0.2,0,0.1,0,0.1s0,0,0,0.1c-0.1,0-0.2-0.1-0.3-0.2
				c-0.1-0.1,0,0.3,0,0.2l-0.1-0.1c-0.1,0-0.1-0.1-0.2-0.1c-0.1,0-0.3,0-0.3-0.2c0-0.1-0.1-0.2-0.1-0.2s-0.3,0-0.4,0
				c-0.1,0-0.2,0.1-0.3,0.1c-0.1,0.1-0.3,0-0.3,0s0,0.1,0,0.2s-0.1,0.1-0.1,0.1c0,0.1,0.1,0.2,0,0.3c0,0.1-0.2,0.1-0.2,0.2v0.1
				c-0.1,0,0,0.1,0,0.2c-0.3,0.3,0.1,0.5,0,0.8c0,0.2-0.1,0.2,0,0.3c0,0,0,0.3,0.1,0.2c0,0.1,0.2,0.2,0.2,0.3c0,0.2,0.2,0.2,0.3,0.3
				c0.1,0,0.1,0.1,0.2,0.1c0.1,0.1,0.2,0,0.3-0.1c0.1,0,0.2,0,0.3,0c0,0,0.4-0.2,0.5-0.2c0.1,0,0.1,0.1,0.1,0.2c0,0.1,0.1,0,0.2,0
				c0.1,0.1,0.2,0.5,0.1,0.6s0.1,0.3,0.1,0.3c0.1,0.1,0.1,0.4,0.1,0.5c0,0.1,0,0.3-0.1,0.4s-0.1,0.2-0.2,0.3c-0.1,0.3,0,0.7-0.1,1
				c-0.1,0.2-0.1,0.3-0.1,0.5c0,0.1-0.2,0.3-0.1,0.4c0.1-0.1,0.2-0.1,0.3-0.1c0.2-0.1,0.3-0.3,0.4-0.5c0.1-0.1,0.1-0.2,0.2-0.3
				c0-0.1,0.1-0.1,0.2-0.2c0.1-0.2,0.2-0.4,0.3-0.7c0.2-0.5,0.2-0.9,0.3-1.5C-417.4,378.9-417.4,378.4-417.5,377.9z M-418,376.6
				c0-0.1-0.4-0.6-0.3-0.6c0,0,0.8,1.3,0.7,1.5C-417.8,377.2-417.9,376.9-418,376.6C-418,376.6-418,376.7-418,376.6z M-417.7,378.9
				v-0.1C-417.7,378.8-417.7,378.8-417.7,378.9z M-417.7,379.1C-417.7,379-417.7,379-417.7,379.1
				C-417.7,379-417.7,379.1-417.7,379.1z M-417.9,380.7L-417.9,380.7L-417.9,380.7L-417.9,380.7L-417.9,380.7z M-417.8,380
				c0-0.1,0-0.1,0.1-0.1C-417.8,380-417.8,380-417.8,380z M-417.8,379.7c0-0.1,0-0.2,0-0.4c0,0.2,0,0.4,0,0.6
				C-417.8,379.9-417.8,379.8-417.8,379.7C-417.8,379.7-417.8,379.8-417.8,379.7z M-417.7,380.1c0,0.1,0,0.4-0.1,0.5
				C-417.8,380.4-417.7,380.2-417.7,380.1L-417.7,380.1L-417.7,380.1z M-417.6,379.1c0,0.1,0,0.2-0.1,0.2
				C-417.7,379.2-417.7,379-417.6,379.1C-417.6,379-417.6,379-417.6,379.1C-417.6,379.1-417.6,379-417.6,379.1z M-421.6,385
				c0,0-0.8,0.2-0.9,0.3c-0.3,0.1-0.7,0.1-1,0.1c-0.7,0-1.3,0-2-0.2c0.1,0,0.2,0.1,0.3,0c-0.1,0-0.2,0-0.2-0.1c0.3,0,0.5,0,0.8,0.1
				l-0.2-0.1h0.2c0.1-0.1-0.1-0.1-0.1-0.1h0.1v-0.1c0,0,0.3-0.1,0.4-0.1c0,0-0.1,0-0.1,0.1h-0.1l0.1,0.1c0,0.1,0.2,0.1,0.2,0.2
				c0,0.1,0.6,0.1,0.7,0.1c0.2,0,0.4-0.1,0.7-0.1c0.1,0,0.3-0.1,0.4-0.1s0.3-0.1,0.3-0.1C-422.2,385.1-421.7,384.9-421.6,385
				L-421.6,385z M-417.9,381.5c0-0.1,0-0.1,0.1-0.2C-417.9,381.3-417.9,381.4-417.9,381.5z M-417.8,381.2L-417.8,381.2L-417.8,381.2
				z M-424.8,372.9h-0.1C-424.9,372.8-424.8,372.8-424.8,372.9c0.1-0.1,0.4-0.2,0.6-0.1c0.2,0,0.4,0,0.6,0c0.1,0,0.1,0,0.2,0
				s0,0.1,0.1,0.1c0,0,0.1,0.1,0.2,0.1c0,0.1,0,0,0,0.1l0.1,0.1h-0.2l0,0c0,0,0.1,0,0.2,0c-0.1,0.1-0.3,0.1-0.4,0.2
				c-0.1,0-0.2,0-0.3,0.1c0,0.1-0.1,0.2-0.1,0.3c0,0.1-0.3-0.1-0.3-0.1c-0.1-0.1-0.2-0.3,0-0.3c0.2-0.1,0,0-0.1-0.1
				c0-0.1,0.1,0,0.2,0c0,0-0.1-0.1-0.1,0c0-0.1,0.1-0.1,0-0.1h-0.2c0-0.1,0.2,0,0.3-0.1C-424.4,372.7-424.6,372.9-424.8,372.9
				C-424.8,372.9-424.7,372.9-424.8,372.9z M-421.4,374.1c0,0,0-0.1-0.1-0.1c0,0,0,0,0.1,0l-0.2-0.1c-0.1,0-0.2-0.2-0.2-0.2
				c0.1,0,0.2,0.1,0.3,0.2c0.1,0,0.4,0.2,0.4,0.3c0,0-0.3,0-0.3,0.1c0-0.1,0.1-0.1,0.1-0.1C-421.3,374.1-421.4,374.1-421.4,374.1
				L-421.4,374.1z M-424.8,374.2l-0.2,0.2c0,0,0.2,0,0.3,0l0,0c0,0,0.1-0.1,0.1,0l0,0c0.1,0.1,0.1-0.1,0.1-0.1c-0.1,0,0-0.1-0.1-0.1
				C-424.7,374.3-424.8,374.2-424.8,374.2C-424.8,374.3-424.7,374.2-424.8,374.2C-424.8,374.1-424.8,374.1-424.8,374.2
				C-424.9,374.2-424.8,374.2-424.8,374.2z M-424.6,374.4L-424.6,374.4L-424.6,374.4z M-424.6,374.4L-424.6,374.4
				C-424.6,374.4-424.7,374.4-424.6,374.4C-424.6,374.4-424.7,374.4-424.6,374.4z M-424.8,374.1L-424.8,374.1L-424.8,374.1
				L-424.8,374.1z M-425,374.3L-425,374.3L-425,374.3L-425,374.3z M-427.2,377C-427.3,377-427.2,376.9-427.2,377
				c0-0.2-0.3-0.2-0.3-0.3l0,0c-0.1,0-0.2,0.1-0.2,0.1c0.2-0.3,0.6,0,0.8,0.2C-427,377-427.1,377-427.2,377L-427.2,377z M-427,377.2
				h0.2c0-0.1,0-0.1-0.1-0.1c0.1-0.1,0.3,0,0.4,0l0,0c0,0,0.2,0.1,0.1,0.1c-0.1,0-0.2,0-0.3,0.1C-426.8,377.1-426.9,377.2-427,377.2
				L-427,377.2z M-421.6,373.9c0.1,0.1-0.1,0.2-0.1,0.1c0,0,0-0.1-0.1-0.2c0,0,0,0,0.1,0C-421.8,373.8-421.6,373.9-421.6,373.9
				C-421.6,374-421.6,373.9-421.6,373.9z M-423,373.3h0.2c0,0,0.4,0,0.3,0.1c-0.1,0-0.2,0.1-0.3,0C-422.9,373.3-423,373.3-423,373.3
				C-423,373.2-423,373.3-423,373.3z M-420.1,374.9c0,0,0.1,0.1,0.1,0.2L-420.1,374.9L-420.1,374.9z M-425.1,372.9
				c0.1-0.1,0.1,0,0.3,0C-424.9,372.9-425,372.9-425.1,372.9C-425.1,372.9-425,372.9-425.1,372.9z M-422.7,372.8
				c-0.1,0-0.2,0-0.2-0.1C-422.8,372.7-422.7,372.8-422.7,372.8C-422.6,372.8-422.7,372.8-422.7,372.8L-422.7,372.8z M-422.9,372.8
				L-422.9,372.8C-422.9,372.7-422.9,372.7-422.9,372.8C-422.9,372.8-422.9,372.7-422.9,372.8z M-427.2,377.2L-427.2,377.2
				C-427.2,377.3-427.3,377.2-427.2,377.2C-427.3,377.1-427.2,377.1-427.2,377.2z M-426.2,377.2C-426.2,377.3-426.4,377-426.2,377.2
				C-426.2,377.2-426.2,377.1-426.2,377.2z M-425.9,378.1L-425.9,378.1L-425.9,378.1L-425.9,378.1z M-425.8,378.1
				C-425.9,378.1-425.8,378-425.8,378.1C-425.7,378-425.8,378.1-425.8,378.1C-425.9,378.1-425.8,378.1-425.8,378.1z M-425.2,372.9
				c-0.1,0-0.1,0-0.2,0C-425.3,372.8-425.3,372.8-425.2,372.9C-425.3,372.9-425.3,372.9-425.2,372.9z M-427.2,376.6
				c0-0.1,0-0.1,0-0.1C-427.1,376.5-427.1,376.6-427.2,376.6C-427.2,376.6-427.1,376.6-427.2,376.6z M-428.5,379.2
				C-428.5,379.3-428.6,379.3-428.5,379.2C-428.6,379.2-428.6,379.2-428.5,379.2C-428.6,379.2-428.5,379.2-428.5,379.2L-428.5,379.2
				z M-425.3,374.2c0.1,0,0.1,0,0.2,0.1C-425.3,374.3-425.3,374.3-425.3,374.2z M-420.1,374.8L-420.1,374.8l-0.1-0.1
				C-420.1,374.7-420.1,374.8-420.1,374.8z M-419,375.4C-419,375.3-419.1,375.4-419,375.4C-419,375.3-419,375.3-419,375.4
				L-419,375.4C-419,375.3-419,375.4-419,375.4z M-425.2,372.9L-425.2,372.9C-425.2,372.8-425.1,372.9-425.2,372.9
				C-425.1,372.9-425.1,372.9-425.2,372.9L-425.2,372.9z M-425.3,372.9c0,0-0.1,0.1-0.2,0.1C-425.5,373-425.4,373-425.3,372.9z
				 M-425.4,374.5C-425.3,374.5-425.3,374.5-425.4,374.5C-425.4,374.6-425.4,374.5-425.4,374.5L-425.4,374.5
				C-425.3,374.5-425.4,374.5-425.4,374.5z M-425.3,373L-425.3,373L-425.3,373z M-420.3,375C-420.4,375-420.3,375-420.3,375
				L-420.3,375C-420.4,375-420.3,375-420.3,375z M-418.8,375.4C-418.8,375.4-418.8,375.3-418.8,375.4
				C-418.8,375.3-418.8,375.3-418.8,375.4z M-425.2,373.2c0,0,0,0,0.1,0C-425.1,373.2-425.2,373.2-425.2,373.2z M-425.7,373.4
				L-425.7,373.4C-425.7,373.4-425.7,373.4-425.7,373.4z M-421.9,373.7L-421.9,373.7C-421.9,373.7-421.9,373.6-421.9,373.7
				C-421.9,373.6-421.8,373.7-421.9,373.7L-421.9,373.7z M-427.6,376.8L-427.6,376.8C-427.7,376.8-427.6,376.8-427.6,376.8
				L-427.6,376.8z M-425.5,383.4C-425.5,383.4-425.4,383.4-425.5,383.4C-425.4,383.5-425.5,383.4-425.5,383.4L-425.5,383.4z
				 M-425.6,373.4C-425.6,373.5-425.6,373.5-425.6,373.4C-425.7,373.5-425.6,373.4-425.6,373.4z M-428.5,379.2
				C-428.5,379.3-428.5,379.2-428.5,379.2L-428.5,379.2z M-425.2,373.6L-425.2,373.6L-425.2,373.6z M-425.5,372.9L-425.5,372.9
				L-425.5,372.9z M-425.5,372.9L-425.5,372.9L-425.5,372.9z M-425.5,373L-425.5,373L-425.5,373z M-425.5,373
				C-425.5,372.9-425.5,373-425.5,373L-425.5,373z M-425.3,373L-425.3,373L-425.3,373z M-425.3,373L-425.3,373L-425.3,373z
				 M-427.7,379.5L-427.7,379.5L-427.7,379.5z M-420.9,373.5C-420.8,373.5-420.9,373.5-420.9,373.5L-420.9,373.5z M-421.8,373.7
				L-421.8,373.7L-421.8,373.7L-421.8,373.7L-421.8,373.7z M-425.3,373L-425.3,373L-425.3,373L-425.3,373z M-425.4,373L-425.4,373
				L-425.4,373L-425.4,373z M-419.6,374.9L-419.6,374.9L-419.6,374.9L-419.6,374.9z M-424.6,379.1C-424.6,379-424.6,379-424.6,379.1
				C-424.6,379-424.6,379-424.6,379.1z M-421.6,385L-421.6,385L-421.6,385L-421.6,385z M-421.6,385L-421.6,385L-421.6,385z
				 M-426.7,374.5C-426.7,374.5-426.6,374.5-426.7,374.5C-426.7,374.6-426.7,374.6-426.7,374.5
				C-426.7,374.5-426.7,374.6-426.7,374.5z M-427,374C-427.1,374-427.1,374-427,374L-427,374C-427.1,374-427,374-427,374z"/>
		</g>
	</g>
</g>
<g>
	<circle class="st0" cx="76.5" cy="592" r="29.9"/>
	<path class="st1" d="M106.4,594.4l-15.7-15.7c-0.2-0.2-0.5-0.3-0.8-0.3H63.1c-0.3,0-0.6,0.1-0.8,0.3c-0.2,0.2-0.3,0.5-0.3,0.8v25.1
		c0,0.3,0.1,0.6,0.3,0.8l16.5,16.5C93.5,620.7,105.2,609,106.4,594.4z"/>
	<g>
		<path class="st11" d="M91,604.5c0,0.3-0.1,0.6-0.3,0.8c-0.2,0.2-0.5,0.3-0.8,0.3H63.1c-0.3,0-0.6-0.1-0.8-0.3
			c-0.2-0.2-0.3-0.5-0.3-0.8v-19.4h29L91,604.5L91,604.5z"/>
		<path class="st15" d="M91,585.2H62v-5.7c0-0.3,0.1-0.6,0.3-0.8c0.2-0.2,0.5-0.3,0.8-0.3h26.8c0.3,0,0.6,0.1,0.8,0.3
			c0.2,0.2,0.3,0.5,0.3,0.8L91,585.2L91,585.2z"/>
		<g>
			<rect x="73.5" y="585.2" class="st3" width="6.1" height="6"/>
			<g>
				<polygon class="st3" points="73.5,592 73.5,590.5 74.2,591.2 				"/>
				
					<rect x="74.5" y="590.7" transform="matrix(-0.7065 -0.7077 0.7077 -0.7065 -290.4019 1062.0964)" class="st3" width="1.1" height="1.1"/>
				
					<rect x="76" y="590.7" transform="matrix(-0.7068 -0.7074 0.7074 -0.7068 -287.6504 1063.271)" class="st3" width="1.1" height="1.1"/>
				
					<rect x="77.5" y="590.7" transform="matrix(-0.7069 -0.7074 0.7074 -0.7069 -284.9986 1064.3857)" class="st3" width="1.1" height="1.1"/>
				<polygon class="st3" points="79.6,592 78.8,591.2 79.6,590.5 				"/>
			</g>
		</g>
		<rect x="73.5" y="578.4" class="st13" width="6.1" height="6.8"/>
		<g>
			<rect x="63.7" y="598.4" class="st15" width="9.7" height="5.5"/>
			<g>
				<g>
					<rect x="64.5" y="599.2" class="st11" width="8.2" height="0.8"/>
					<rect x="64.5" y="600.8" class="st11" width="8.2" height="0.8"/>
					<rect x="64.5" y="602.4" class="st11" width="4.1" height="0.8"/>
				</g>
			</g>
		</g>
		<g>
			<rect x="83.8" y="600" class="st3" width="5.6" height="3.9"/>
			<rect x="84.6" y="600.8" class="st13" width="4" height="0.8"/>
			<rect x="84.6" y="602.4" class="st13" width="4" height="0.8"/>
		</g>
	</g>
</g>
<g>
	<circle class="st0" cx="-245" cy="397" r="29.9"/>
	<path class="st1" d="M-216,404.3l-17.2-17.2c0,0,0,0,0,0l-1.9-1.9c0,0,0,0,0,0c-0.1-0.1-0.2-0.1-0.3-0.2c-0.1-0.1-0.1-0.1-0.2-0.2
		c-0.1,0-0.1-0.1-0.2-0.1c0,0,0,0,0,0c0,0,0,0,0,0c-0.1-0.1-0.1-0.1-0.2-0.2c0,0-0.1-0.1-0.1-0.1c0,0,0,0,0,0
		c-0.1-0.1-0.2-0.2-0.3-0.2c0,0,0,0,0,0c0,0-0.1,0-0.1-0.1c-0.1,0-0.1-0.1-0.2-0.1c-0.1,0-0.2-0.1-0.2-0.1c0,0,0,0-0.1,0
		c-0.2-0.1-0.3-0.2-0.5-0.3c0,0-0.1-0.1-0.1-0.1c-0.1-0.1-0.2-0.1-0.4-0.2c0,0,0,0,0,0c-0.1,0-0.1-0.1-0.2-0.1c0,0,0,0,0,0
		c-0.3-0.1-0.6-0.3-0.9-0.4c-0.2-0.1-0.4-0.1-0.5-0.2c-1.7-0.6-3.5-1-5.4-1c-2.6,0-5,0.6-7.2,1.8c-0.2,0.1-0.4,0.2-0.5,0.3
		c-0.1,0.1-0.3,0.2-0.4,0.2c-3.9,2.4-6.6,6.5-7.2,11.2l3.4,4.5v0h-0.3c-0.5,0-1,0.2-1.4,0.6c-0.2,0.2-0.4,0.5-0.5,0.7
		c-0.1,0.2-0.1,0.4-0.1,0.7c0,0.5,0.2,1,0.6,1.4l2.2,4.5c0,0,0,0,0,0l0.9,0.9c0,0,0,0,0,0l17.7,17.7
		C-227.1,423.5-218.6,415-216,404.3z"/>
	<g>
		<g>
			<path class="st12" d="M-229.6,397c0,8.5-6.9,15.5-15.5,15.5c-8.5,0-15.5-6.9-15.5-15.5c0-8.5,6.9-15.5,15.5-15.5
				C-236.5,381.6-229.6,388.5-229.6,397z"/>
			<path class="st2" d="M-239.6,382.6c2.8,2.6,4.6,6.3,4.6,10.4c0,7.8-6.3,14.1-14.1,14.1c-4.1,0-7.8-1.8-10.4-4.6
				c2.2,5.9,7.8,10,14.5,10c8.5,0,15.5-6.9,15.5-15.5C-229.6,390.4-233.7,384.8-239.6,382.6z"/>
			<path class="st27" d="M-248.6,410c0.1,0,0.2,0,0.3-0.1c-0.1-0.1-0.4-0.1-0.5-0.2c0,0-0.5-0.3-0.4,0c0,0.1,0.1,0,0.2,0
				c-0.1,0.1-0.1,0.1,0,0.1c0,0-0.5-0.3,0-0.3c-0.4-0.3,0-0.2-0.1-0.4c-0.1-0.1,0.3-0.3,0.1-0.4c-0.1-0.1-0.2,0-0.3-0.1
				c-0.1-0.1,0-0.3,0.1-0.3c0,0,0.1-0.3,0.1-0.4c0,0-0.3-0.4-0.2-0.4c0.1-0.1,0.4,0.2,0.5,0c0-0.1-0.1-0.3-0.1-0.4
				c0.2,0,1.2,0,1-0.5c-0.1-0.2-0.5-0.4-0.5-0.6c0.2,0,0.4,0.2,0.6,0.2c0.1-0.1,0.2,0.1,0.4-0.1c0,0,0.3-0.3,0.2-0.3
				c-0.1,0-0.1,0-0.1,0.1c-0.1-0.1,0.1-0.2,0.1-0.3c0,0,0,0,0.1,0.1c0.1-0.1,0.6-0.8,0.6-0.8c0.3-0.3,0-0.7,0.3-0.9
				c0.2-0.2,0.5-0.4,0.8-0.5c0.1,0,0.4-0.2,0.5-0.2c0.5,0.2,0.5-0.5,0.8-0.7c0.3-0.3,0.1-1.7,0.4-1.8c0.1-0.1,0.6-0.6,0.8-0.8
				c0.2-0.2,0.2-0.5,0.2-0.8c-0.1-0.5-0.3-0.2-0.6-0.4c-0.3-0.2-0.5-0.5-0.8-0.5c-0.2,0-0.4,0-0.6,0c-0.1,0-0.3-0.2-0.4,0
				c0,0-0.2,0.1-0.2,0.1c0,0,0-0.3-0.1-0.3c-0.1-0.1-0.4-0.2-0.6-0.2c-0.3-0.1-0.4,0.3-0.4-0.1c-0.2-0.1-0.5-0.3-0.4-0.4
				c0,0-0.4-0.9-0.4-0.8c0-0.3-0.9-0.6-1.1-0.5c-0.2,0.1-0.6-0.1-0.7-0.3c-0.1-0.1-0.1-0.3-0.4-0.4c-0.1,0-0.3,0-0.2-0.2
				c0-0.2-0.4-0.2-0.5-0.4c0.1,0,0.1,0,0.2,0c-0.2,0.1-0.4-0.1-0.6,0.1c-0.3,0.2-0.4-0.1-0.7,0c-0.4,0.1-0.1-0.1-0.3-0.2
				c0.1,0.1-0.4-0.2-0.3-0.2c-0.1,0,0,0.2-0.1,0.2c-0.2,0.1-0.3,0.1-0.2,0.3c0.2,0.4-0.4,0.2-0.1-0.1c0.1,0,0.1-0.6,0.1-0.6
				c-0.1,0-0.7,0.4-0.7,0.4c-0.2-0.3-0.5,0.7-0.6,0.7c-0.1-0.3-0.3-0.4-0.5-0.4c-0.2-0.1-0.4,0.4-0.6,0.1c-0.4-0.4-0.2-1.1,0-1.6
				c0.1-0.2-0.8-0.3-0.9-0.2c-0.2,0.2,0-0.4,0-0.3c0-0.2,0.1-0.4,0.2-0.3c0.1-0.1,0.4-0.7,0.3-0.8c-0.1-0.3-0.7,0.2-0.7,0.4
				c-0.1,0.1-0.2,0.2-0.2,0.3c-0.1,0.1-0.2,0-0.2,0c-0.2,0.1-0.6,0.1-0.5-0.3c0.1-0.4-0.1-1.2,0.4-1.5c0.1-0.1,0.2-0.5,0.3-0.6
				c0,0,0.5-0.3,0.4-0.3c0.1,0.1,0.4-0.1,0.5,0c0,0.1,0.3,0.2,0.3,0.1c0,0,0-0.2,0-0.2c0,0-0.1,0-0.1-0.1c0-0.1,0.5,0,0.5,0
				c0.2,0,0.4,0.2,0.5,0.1c0.2-0.2,0.1,0.9,0.2,1c0.1,0.1,0,0.2,0.1,0.2c0.1,0,0.2-1.4,0.5-1.7c0.3-0.2,0.5-0.4,0.8-0.5
				c0.1,0,0.3-0.2,0.4-0.2c0,0-0.1-0.1-0.1,0c0-0.1,0.1,0,0.2-0.1c0-0.1-0.1-0.1-0.1-0.1c0,0,0.1-0.2,0.1-0.2c0,0,0,0,0,0
				c0.1,0,0-0.1,0-0.2c0.2,0.1,0.1-0.2,0.3-0.2c-0.1,0.1-0.1,0.2-0.1,0.3c0,0.2,0.2-0.3,0.2-0.3c0.2-0.1,0.4-0.2,0.6-0.3
				c0,0-0.1,0-0.1,0c0.2-0.1,0.4,0,0.6-0.1c0-0.2,0.1-0.4,0.3-0.4c0.3-0.1,0.7-0.3,1-0.4c0,0.1,0,0,0.1,0.1
				c-0.1-0.3-0.7,0.5-0.4,0.4c0.2-0.1,1-0.3,1.1-0.5c0,0-0.1-0.2-0.1-0.2c-0.2,0-0.2,0.2-0.5,0.2c-0.4,0-0.2-0.3-0.3-0.4
				c-0.1,0-0.1,0-0.2-0.1c0,0,0.6-0.1,0.3-0.2c-0.5-0.1-0.8,0.4-1.2,0.4c0.3-0.2,0.7-0.5,1-0.6c0.4-0.1,0.9,0.1,1.2-0.1
				c0.3-0.2,0.5-0.1,0.6-0.4c0-0.1-0.2-0.2-0.3-0.2c0,0,0.1,0,0.1-0.1c-0.4-0.2-0.5-0.4-0.6-0.9c-0.2,0.2-1,0.5-0.6-0.1
				c-0.1-0.1-0.6-0.4-0.8-0.2c-0.1,0.1-0.2,0.3-0.3,0.4c-0.3,0.1,0,0.1-0.1,0.3c-0.2,0.3-0.6,0.3-0.8,0.6c-0.1,0.2-0.2,0.3-0.3,0.4
				c-0.2,0.1-0.2-0.1-0.1-0.3c0.1,0.1,0.1,0.1,0.2,0c0-0.1-0.1,0-0.1-0.1c0.1-0.1,0.1-0.2,0.2-0.3c0,0-0.4-0.1-0.4-0.2
				c0-0.2-0.3-0.1-0.3-0.2c0.2-0.3,0.2-0.4,0.7-0.6c0.1-0.1,1-0.5,1.1-0.4c0,0.1-0.1,0.1-0.2,0.1c0.1,0,0.5,0.1,0.6,0
				c0,0-0.2-0.3-0.1-0.3c0,0,0.2,0,0.3,0c0.1,0,0.3,0,0.4-0.2c0.1-0.1,0.5-0.3,0.6-0.2c0.6,0.3-0.8,0.7-0.8,0.6
				c0,0.1,0.4-0.1,0.5,0.2c0,0.1,0.4,0.2,0.5,0.1c0,0-0.1-0.2-0.1-0.2c0.4,0.2,0.4,0.1,0.3-0.2c-0.1-0.3,0.3,0,0.3,0
				c0.1,0,0.4-0.1,0.4-0.2c-0.1-0.1-0.3-0.1-0.4-0.2c-0.1-0.1,0.2-0.1,0.1-0.2c-0.1-0.1-0.3-0.1-0.3-0.3c-0.1,0-0.1,0-0.2,0
				c0,0,0.1,0,0.1,0c-0.1,0-0.2,0.1-0.2,0c0,0,0.1,0,0.1-0.1c-0.2,0-0.3,0.1-0.5,0.2c0.1-0.1,0.2-0.1,0.2-0.2
				c-0.2,0-0.4,0.1-0.6,0.2c0,0,0,0,0.1,0.1c-0.2,0.1-0.4,0.2-0.6,0.3c0-0.1,0.2-0.1,0.2-0.2c-0.1,0-0.1,0-0.2,0
				c0.1,0,0.3-0.3,0.4-0.3c-0.4,0-0.5,0.4-0.8,0.4c0.1-0.1,0.2,0,0.3-0.2c-0.1,0-0.6,0.3-0.7,0.2c0,0,0.9-0.4,0.9-0.5
				c-0.1,0-0.1,0.1-0.2,0c0,0,0.1-0.1,0.2-0.1c-0.3,0-1.1,0.3-1.1,0.5c-0.1,0.1-0.2,0.1-0.4,0.1c0.1-0.1,0.2-0.1,0.1-0.2
				c-0.3,0.1-0.5,0.2-0.8,0.3c-0.6,0.3-1.2,0.6-1.8,0.9c-0.9,0.6-1.7,1.2-2.5,2c-0.4,0.4-1.9,2.2-1.9,2.6c0,0.3-0.2,0.5-0.3,0.8
				c-0.1,0.2-0.1,0.5-0.2,0.7c-0.2,0.4-0.1,0.9-0.2,1.3c0.1-0.1,0.4-2.2,0.6-2.1c0,0-0.1,0.9-0.2,1c-0.2,0.4,0.1,1-0.1,1.4
				c0,0-0.1,0.3-0.1,0.3c-0.2,0.2,0.1,0.4,0.1,0.6c0,0.1,0.5,0.6,0.6,0.6c0.2,0.1,0.3-0.1,0.5-0.1c0.2,0,0.2,0.4,0.3,0.5
				c0.1,0.2,0.6,0.2,0.7,0.3c0.1,0.1,0,0.5,0.2,0.5c0,0,0-0.2,0-0.2c0.1,0,0.2,0.2,0.2,0.3c-0.1,0-0.1,0-0.2-0.1c0,0,0,0.5,0.1,0.4
				c0,0,0-0.1,0-0.1c0.2,0.1,0.2,0.4,0.3,0.4c0.2,0.1,0.3,0.3,0.5,0.4c0.1,0.1,0.1-0.4,0.3-0.5c0.2,0,0.3,0.5,0.4,0.6
				c0.1,0.2-0.1,0.6,0,0.7c0.1,0.1-0.3,0.5-0.4,0.6c0,0.1-0.3,0.2-0.2,0.3c0,0.1-0.1,0.3-0.1,0.4c-0.1,0.3-0.1,0.3,0.1,0.5
				c0,0-0.4,0.8-0.2,1c0.4,0.3,0.8,1,0.9,1.5c0.2,0.6,0.6,1,1.2,1.3c0.5,0.3,0.8,0.7,0.8,1.3c0,0.3,0,0.8,0.1,1.1
				c0.1,0.2-0.1,0.6,0.1,0.8c0.1,0.1,0,0.2,0,0.3c0.1,0.1,0.2,0.3,0.2,0.5c0,0.2,0,0.5,0,0.8c0,0.1-0.1,0.2,0,0.3
				c0.1,0.1,0.4,0.9,0.4,1.1c0,0.1,0.2,0,0-0.2c0.3-0.2,0.2,0.5,0.2,0.5c-0.2-0.1-0.1,0-0.1,0.3c0,0.2,0,0.1,0.1,0.1
				c0.2,0.1,0,0.2,0.1,0.3c0.2,0.3,0.5,0.5,0.6,0.7C-249.5,409.9-249,409.9-248.6,410C-248.6,410-248.7,410-248.6,410z
				 M-247.6,384.8c-0.1,0.1-0.2,0.1-0.3,0.1C-247.8,384.8-247.7,384.8-247.6,384.8z M-248.4,384.7c0.1,0,0.1,0,0.1,0.1
				c0,0-0.3,0-0.4,0.1C-248.6,384.7-248.5,384.8-248.4,384.7C-248.4,384.8-248.5,384.8-248.4,384.7z M-249.2,385.3
				C-249.2,385.3-249.3,385.3-249.2,385.3C-249.2,385.3-249.3,385.3-249.2,385.3z M-249.7,384.4
				C-249.7,384.4-249.6,384.4-249.7,384.4C-249.6,384.5-249.7,384.5-249.7,384.4C-249.7,384.4-249.7,384.5-249.7,384.4z
				 M-250.1,385.8C-250.2,385.7-250,385.8-250.1,385.8C-250.1,385.8-250.1,385.8-250.1,385.8z M-250,385.2c-0.4,0.4-0.1,0-0.2,0.1
				c0,0,0,0,0,0C-250.3,385.3-250,385.2-250,385.2C-250,385.3-250.1,385.3-250,385.2z M-250.2,384.8c-0.1,0.1-0.1,0.1-0.2,0.1
				C-250.3,384.8-250.2,384.8-250.2,384.8z M-248.2,383.2c0,0-0.1,0-0.1,0C-248.2,383.1-248.2,383.2-248.2,383.2
				C-248.3,383.2-248.2,383.2-248.2,383.2z M-247.9,383c0,0.1-0.1,0-0.2,0C-248,383-248,383-247.9,383z M-249.7,383.2
				c0,0,0.1,0,0.1,0C-249.5,383.2-249.8,383.2-249.7,383.2C-249.6,383.2-249.7,383.2-249.7,383.2z M-249.7,383.1
				C-249.7,383.1-249.7,383.1-249.7,383.1C-249.8,383.1-249.8,383.1-249.7,383.1C-249.7,383.1-249.8,383.1-249.7,383.1z M-252,386.9
				c0,0-0.7,0.3-0.6,0.1c0,0.1,0.2-0.2,0.2-0.2c0.1,0,0.5-0.1,0.6-0.1C-251.9,386.9-251.9,386.9-252,386.9
				C-252.1,387-251.9,386.9-252,386.9z M-251.5,386.6c0.6,0.1-0.3,0.2-0.4,0.1C-251.8,386.6-251.6,386.6-251.5,386.6
				C-251.4,386.6-251.6,386.6-251.5,386.6z M-251.5,383.1c0.1-0.1,0.3-0.2,0.5-0.2C-251.2,383-251.4,383.1-251.5,383.1L-251.5,383.1
				z M-251.5,386.1C-251.5,386.2-251.6,386.2-251.5,386.1C-251.6,386.1-251.5,386.1-251.5,386.1
				C-251.5,386.2-251.5,386.1-251.5,386.1z M-251.7,386.5C-251.7,386.5-251.7,386.5-251.7,386.5
				C-251.7,386.5-251.7,386.5-251.7,386.5z M-251.8,386.2c0.2,0.1,0.1,0.4-0.1,0.2c0,0.1-0.3,0.4-0.4,0.4c0.1-0.1,0.1-0.1,0.1-0.2
				c0,0-0.1,0.1-0.2,0.1c0,0.1,0.4-0.6,0.1-0.4c-0.1,0.1-0.8,0.8-0.8,0.8c-0.1-0.1,0.3-0.6,0.3-0.6
				C-252.6,386.2-252.1,386.1-251.8,386.2z M-252.2,383.6c0,0,0.3-0.2,0.3-0.1c0.1,0.1-0.4,0.2-0.4,0.2
				C-252.3,383.6-252.3,383.6-252.2,383.6C-252.2,383.6-252.3,383.6-252.2,383.6z M-252.2,385.4c0,0-0.1,0.2-0.1,0.1
				C-252.4,385.5-252.2,385.3-252.2,385.4C-252.2,385.5-252.2,385.4-252.2,385.4z M-252.7,384c0,0,0.4-0.2,0.4-0.1
				C-252.3,383.9-252.7,384-252.7,384z M-252.8,384.4C-252.8,384.4-252.8,384.5-252.8,384.4C-252.9,384.4-252.8,384.4-252.8,384.4z
				 M-253,385.3c0.1,0,0.2-0.2,0.1-0.3c0,0-0.2,0-0.1-0.1c0,0,0.3-0.2,0.4-0.1C-252.6,384.9-253,385.3-253,385.3
				C-253.1,385.3-253.1,385.3-253,385.3C-253,385.2-253.1,385.3-253,385.3z M-252.8,385.8c0.3-0.1,0.4-0.3,0.6,0
				c0.1,0.1,0.1,0.3-0.1,0.3c0,0-0.5,0-0.4-0.1c-0.1,0.1-0.3,0.1-0.5,0.1C-253,386-252.9,385.9-252.8,385.8
				C-252.7,385.8-252.9,385.9-252.8,385.8z M-253.2,385.3c0,0.1,0,0.1-0.1,0.1C-253.3,385.3-253.2,385.3-253.2,385.3z M-257.7,392
				C-257.8,392-257.5,392-257.7,392C-257.7,392-257.6,392-257.7,392z M-255.9,393.3C-255.9,393.3-255.8,393.3-255.9,393.3
				C-255.9,393.3-255.8,393.3-255.9,393.3z M-251.5,394.7C-251.6,394.7-251.4,394.7-251.5,394.7
				C-251.5,394.7-251.5,394.7-251.5,394.7z M-250.8,407.5C-250.9,407.5-250.7,407.4-250.8,407.5
				C-250.8,407.5-250.8,407.5-250.8,407.5z M-250.5,401.1C-250.5,401.1-250.4,401.2-250.5,401.1
				C-250.5,401.1-250.4,401.1-250.5,401.1z M-250.4,405.1C-250.5,405.2-250.3,405.1-250.4,405.1
				C-250.4,405.1-250.4,405.1-250.4,405.1z M-250,409.4C-250,409.4-250,409.4-250,409.4C-249.9,409.4-249.9,409.4-250,409.4
				C-250,409.4-250,409.4-250,409.4z M-249.4,409.7C-249.5,409.7-249.5,409.6-249.4,409.7C-249.4,409.6-249.4,409.6-249.4,409.7
				C-249.5,409.7-249.4,409.7-249.4,409.7z M-250.6,408.1C-250.6,408.1-250.6,408.1-250.6,408.1
				C-250.6,408.1-250.6,408.1-250.6,408.1z M-249.2,382.4C-249.2,382.4-249.2,382.4-249.2,382.4
				C-249.2,382.4-249.2,382.4-249.2,382.4L-249.2,382.4z M-254.5,384.9C-254.5,384.9-254.5,384.9-254.5,384.9L-254.5,384.9z
				 M-254.3,384.7L-254.3,384.7L-254.3,384.7z M-229.8,394.3L-229.8,394.3c-0.3-1.1-0.5-2.2-1-3.3c-0.5-1.3-1.3-2.5-2.1-3.6
				c-0.8-1-1.8-1.9-2.8-2.7c-0.5-0.4-1-0.7-1.6-1.1c-0.3-0.2-0.5-0.3-0.8-0.4c-0.1-0.1-0.5-0.2-0.6-0.3c0,0,0.2,0.2,0.3,0.2
				c-0.2,0-0.6-0.2-0.6-0.3c0,0,0,0,0,0c-0.2-0.2-1.2-0.5-1.3-0.2c0,0,0.6,0.6,0.6,0.8c0,0.3,0.5,0.5,0.7,0.6c0.4,0.1,0.1,0,0.2-0.1
				c0.1-0.1,0.2,0.2,0.3,0.1c0,0,0,0,0,0c0-0.1-0.1-0.1-0.1-0.2c0,0,0.7,0.7,0.8,0.6c-0.1-0.2-0.2-0.4-0.4-0.6
				c-0.2-0.2-0.4-0.2-0.6-0.3c-0.1-0.1-0.4-0.3-0.5-0.5c0.5,0,1,1,1.5,0.6c-0.1,0-0.1-0.1-0.2-0.1c0.1,0,0.5,0.1,0.3,0.3
				c-0.4-0.1,0.3,0.3,0.3,0.4c-0.1,0-0.1-0.1-0.2-0.1c0,0.1,0.4,0.3,0.4,0.5c-0.2,0-0.1-0.1-0.3,0c0,0.1-0.2,0-0.4,0
				c-0.3,0-0.5-0.4-0.7-0.5c0.1,0.2,0.2,0.4,0.5,0.5c0.1,0.1-0.2,0.1-0.2,0.2c0,0,0.1,0,0.1,0.1c0,0-0.1,0-0.1-0.1
				c0,0,0,0.4-0.1,0.4c0.2,0.2-0.3,0.2-0.3,0.2c0,0.1,0.1,0.1,0.1,0.2c-0.1,0-0.3,0-0.4,0c0.2,0.1,1.3,0.6,1.1,1c-0.1,0.1-0.8,0-1,0
				c-0.3,0,0,0.3,0,0.3c0,0.2,0.2,0.3,0.2,0.6c0,0.2,0.2,0.2,0.2,0.3c0.1,0.1,0,0.1,0.2,0.2c0.2,0,0.3,0,0.5,0.2
				c0.1,0.1,0.2-0.1,0.4-0.1c0.4,0,0.1-0.1,0.3-0.2c0.3-0.1-0.1-0.5-0.1-0.6c0-0.1,0-0.2,0.1-0.3c0.2-0.1-0.1-0.3-0.1-0.4
				c0-0.2,0.6,0.2,0.5-0.3c0.4,0.1,0.8,0.5,1.1,0.7c0.2,0.1,0.4,0.2,0.6,0.4c0.2,0.2-0.3,0.1-0.3,0.2c0,0.1,0.4,0.3,0.5,0.3
				c0,0-0.1-0.3-0.1-0.3c0-0.2-0.3-0.3-0.2-0.5c0.1,0,0.1,0,0.2,0.1c-0.2-0.3-0.6-0.3-0.8-0.5c-0.2-0.1-0.3-0.2-0.5-0.4
				c0,0-0.3-0.3-0.1-0.3c0.3,0.1,0.6,0.4,0.9,0.6c0.2,0.1,0.3,0.2,0.5,0.4c0.1,0.1,0.4,0.5,0.5,0.5c0,0,0.3,0.3,0.4,0.3
				c-0.1-0.1-0.1-0.3-0.2-0.4c-0.1-0.1-0.4-0.2-0.4-0.4c0.1,0,0.1-0.1,0.3-0.1c-0.1,0,0.1-0.1,0.1-0.1c-0.3-0.2-0.8-0.7-0.9-1.1
				c0.1,0,0.1,0.1,0.2,0.1c0-0.1,0-0.1,0-0.2c0,0,0.3,0.3,0.3,0.3c-0.1,0-0.2,0-0.2-0.1c0,0.2,0.2,0.2,0.3,0.3c0,0,0-0.1,0-0.1
				c0.3,0.1,0.8,0.5,0.9,0.8c-0.1,0-0.3-0.2-0.4-0.2c0,0.1,0,0.1,0,0.2c0,0-0.1,0-0.1,0c0,0,0.1,0.1,0.1,0.1c0,0-0.1,0-0.1,0
				c0,0.1,0.8,0.9,0.9,0.8c0,0,0-0.1,0-0.1c0,0,0.2,0.2,0.2,0.1c0.1,0-0.1-0.1,0-0.1c0.1-0.1,0.6,0.9,0.6,1c0.2,0.4,0.1,0.2-0.1,0.2
				c0,0,0,0.1,0,0.1c-0.3-0.1-0.6-0.2-0.8-0.4c-0.4-0.3,0.1,0.7-0.1,0.6c-0.1-0.1-0.2-0.2-0.3-0.2c-0.2,0-0.3-0.3-0.5-0.3
				c-0.2-0.1-0.8-0.1-0.7-0.4c0.1-0.3-0.3-0.5-0.4-0.6c-0.1,0-0.8,0-0.9,0.1c-0.2,0.1-0.5,0.1-0.6,0.3c-0.2,0.3-0.6-0.1-0.8,0
				c-0.1,0,0,0.3-0.1,0.4c-0.1,0.1-0.2,0.1-0.3,0.3c-0.1,0.3,0.1,0.5,0,0.8c-0.1,0.2-0.5,0.3-0.5,0.5c0,0.1,0,0.2-0.1,0.2
				c-0.2,0.1,0,0.4-0.1,0.5c-0.6,0.6,0.2,1.3,0.1,2c-0.1,0.4-0.1,0.5,0,0.8c0,0.1,0,0.7,0.3,0.5c0,0.4,0.5,0.4,0.6,0.8
				c0.1,0.4,0.5,0.6,0.8,0.8c0.1,0.1,0.2,0.2,0.4,0.3c0.3,0.1,0.4-0.1,0.7-0.1c0.2-0.1,0.4,0,0.7,0.1c0.1,0.1,1-0.6,1.2-0.5
				c0.2,0.1,0.2,0.3,0.3,0.5c0.1,0.2,0.4-0.1,0.5,0c0.3,0.1,0.4,1.2,0.1,1.4c-0.2,0.1,0.2,0.7,0.3,0.8c0.2,0.3,0.3,0.9,0.3,1.3
				c0,0.3,0,0.8-0.1,1c-0.2,0.3-0.3,0.5-0.4,0.8c-0.4,0.8,0,1.6-0.3,2.4c-0.2,0.4-0.1,0.8-0.2,1.3c-0.1,0.3-0.4,0.7-0.3,0.9
				c0.2-0.2,0.5-0.2,0.7-0.3c0.5-0.2,0.7-0.8,1-1.1c0.2-0.2,0.3-0.4,0.4-0.6c0.1-0.2,0.3-0.4,0.4-0.6c0.2-0.5,0.4-1.1,0.7-1.6
				c0.5-1.2,0.6-2.3,0.7-3.5C-229.6,396.9-229.6,395.6-229.8,394.3z M-231,391.2c-0.1-0.2-0.9-1.4-0.8-1.4c0.1-0.1,1.9,3,1.7,3.5
				C-230.4,392.6-230.7,391.9-231,391.2C-231,391.2-230.9,391.4-231,391.2z M-230.2,396.7c0-0.1,0-0.2,0-0.3
				C-230.2,396.6-230.2,396.6-230.2,396.7z M-230.3,397.2c0-0.1,0-0.1,0-0.1C-230.3,397.1-230.3,397.2-230.3,397.2z M-230.6,401.2
				C-230.6,401.2-230.7,401.2-230.6,401.2C-230.8,401.2-230.6,401.2-230.6,401.2C-230.6,401.2-230.6,401.2-230.6,401.2
				C-230.6,401.2-230.6,401.2-230.6,401.2z M-230.6,399.6c0-0.1,0-0.2,0.2-0.2C-230.4,399.4-230.5,399.5-230.6,399.6z M-230.4,398.8
				c0-0.3,0-0.6,0-0.9c0,0.5,0,0.9,0,1.4C-230.4,399.3-230.4,398.9-230.4,398.8C-230.4,398.7-230.4,398.9-230.4,398.8z
				 M-230.2,399.7c0,0.2,0,0.9-0.2,1.1C-230.3,400.4-230.2,400-230.2,399.7C-230.1,399.6-230.2,399.7-230.2,399.7
				C-230.2,399.7-230.2,399.7-230.2,399.7z M-230,397.2c-0.1,0.3,0,0.4-0.2,0.6c0-0.2-0.1-0.6,0.1-0.8
				C-230,397-229.9,397.1-230,397.2C-230,397.3-229.9,397.1-230,397.2z M-239.7,411.5c0,0-1.9,0.6-2.1,0.6c-0.8,0.2-1.6,0.3-2.5,0.3
				c-1.6,0.1-3.2-0.1-4.8-0.5c0.2,0,0.4,0.1,0.6,0.1c-0.2-0.1-0.4-0.1-0.6-0.2c0.6,0.1,1.2,0.1,1.8,0.1c-0.1-0.1-0.6-0.2-0.6-0.3
				c0.1,0,0.5,0,0.5,0c0.2-0.1-0.3-0.1-0.3-0.2c0,0,0.2,0,0.2,0c0.1-0.1,0-0.2,0-0.2c0,0,0.8-0.2,0.9-0.1c-0.1,0.1-0.2,0-0.2,0.1
				c-0.1,0-0.3,0-0.3,0.1c0,0,0.3,0.3,0.3,0.3c0.1,0.1,0.4,0.2,0.4,0.4c0.1,0.3,1.5,0.3,1.7,0.2c0.5-0.1,1.1-0.3,1.6-0.4
				c0.3-0.1,0.6-0.1,1-0.2c0.2,0,0.7-0.2,0.8-0.2C-241.1,411.8-239.9,411.5-239.7,411.5C-239.7,411.5-239.7,411.5-239.7,411.5z
				 M-230.8,403c0.1-0.2,0.1-0.3,0.2-0.5C-230.6,402.7-230.7,402.8-230.8,403z M-230.5,402.4C-230.5,402.3-230.5,402.3-230.5,402.4
				C-230.5,402.3-230.5,402.3-230.5,402.4z M-247.4,382.1c-0.1,0-0.2,0-0.3,0c0,0,0.3-0.1,0.2-0.1c0.4-0.2,1.1-0.3,1.5-0.2
				c0.5,0.1,0.9-0.1,1.4,0c0.2,0,0.3,0,0.5,0c0.2,0,0,0.2,0.2,0.2c0.1,0,0.3,0.3,0.4,0.2c0,0.2-0.1,0.1,0,0.2c0,0,0.2,0.1,0.2,0.2
				c0,0-0.5,0-0.5,0c0,0,0,0.1,0,0.1c0.1,0,0.3,0,0.4,0c-0.3,0.2-0.6,0.2-0.9,0.4c-0.2,0.1-0.4,0.1-0.6,0.2c0,0.2-0.1,0.4-0.3,0.6
				c-0.1,0.1-0.7-0.2-0.8-0.3c-0.1-0.2-0.5-0.6-0.1-0.8c0.4-0.2,0,0-0.1-0.1c0.1-0.1,0.2-0.1,0.4-0.1c-0.1-0.1-0.2-0.1-0.3-0.1
				c0-0.1,0.2-0.2,0-0.4c-0.1-0.1-0.5,0-0.5-0.1c0-0.2,0.6-0.1,0.7-0.3C-246.5,381.8-247,382.2-247.4,382.1
				C-247.5,382.1-247.3,382.1-247.4,382.1z M-239.3,385.1c0.1,0-0.1-0.2-0.1-0.3c0,0,0.1,0,0.1,0c0-0.1-0.5-0.4-0.5-0.3
				c-0.2,0.1-0.4-0.4-0.4-0.4c0.3,0,0.5,0.3,0.7,0.4c0.2,0.1,1,0.5,1.1,0.7c0,0.1-0.6,0.1-0.7,0.2c-0.1-0.2,0.2-0.2,0.2-0.2
				C-239,385.1-239.2,385.1-239.3,385.1C-239.3,385.1-239.2,385.1-239.3,385.1z M-247.5,385.3c0,0-0.6,0.5-0.6,0.6
				c0,0,0.6,0,0.7,0.1c0,0.1-0.1,0-0.1,0.1c0.1,0,0.3-0.1,0.3-0.1c0,0,0,0.1,0,0.1c0.2,0.2,0.2-0.3,0.2-0.3c-0.2,0,0-0.3-0.3-0.2
				c0,0-0.3-0.1-0.3-0.1c0,0,0.2-0.3,0.3-0.3C-247.4,385.2-247.4,385.2-247.5,385.3C-247.6,385.4-247.5,385.3-247.5,385.3z
				 M-247,385.9C-246.9,385.9-247,385.9-247,385.9C-247,385.9-247,385.9-247,385.9z M-247.1,385.9
				C-247.1,385.8-247,385.8-247.1,385.9C-247.1,385.9-247.1,385.9-247.1,385.9C-247.1,385.8-247.1,385.9-247.1,385.9z M-247.5,385.2
				L-247.5,385.2C-247.5,385.2-247.5,385.2-247.5,385.2C-247.5,385.2-247.5,385.2-247.5,385.2z M-248,385.7
				C-248,385.7-247.9,385.7-248,385.7C-247.9,385.7-248,385.7-248,385.7C-248,385.7-248,385.7-248,385.7z M-253.3,392.2
				c-0.2,0,0.1-0.1,0.1-0.2c-0.1-0.2-0.8-0.3-0.9-0.5c0,0,0.1,0,0.1-0.1c-0.2-0.1-0.4,0.2-0.6,0.2c0.5-0.8,1.6,0.1,2,0.5
				C-252.9,392.1-253.1,392.1-253.3,392.2C-253.4,392.2-253.2,392.1-253.3,392.2z M-252.8,392.6c-0.1,0,0.4,0,0.4-0.1
				c-0.1-0.1,0-0.2-0.2-0.3c0.2-0.2,0.7,0,0.9,0.1c0,0,0,0-0.1,0c0,0,0.4,0.3,0.1,0.2c-0.3-0.1-0.4,0-0.6,0.2
				C-252.3,392.5-252.5,392.7-252.8,392.6C-252.8,392.6-252.7,392.6-252.8,392.6z M-239.7,384.8c0.3,0.3-0.1,0.5-0.3,0.3
				c-0.1-0.1,0-0.3-0.2-0.4c0.1,0,0.1,0,0.2-0.1C-240.2,384.3-239.7,384.7-239.7,384.8C-239.6,384.8-239.7,384.7-239.7,384.8z
				 M-243.1,383.1c0-0.1,0.4,0,0.4,0c0.1,0,0.9,0.1,0.6,0.2c-0.2,0.1-0.5,0.2-0.7,0C-242.8,383.2-243.1,383.1-243.1,383.1
				C-243.1,383.1-243.1,383.2-243.1,383.1z M-235.9,387c0.1,0,0.3,0.4,0.3,0.4c-0.1,0.2-0.3-0.3-0.4-0.3C-236,387-236,387-235.9,387
				z M-248.2,382.2c0.3-0.2,0.3-0.1,0.7-0.1C-247.6,382.3-247.9,382.3-248.2,382.2C-248.1,382.2-247.9,382.3-248.2,382.2z
				 M-242.3,382c-0.2-0.1-0.4-0.1-0.6-0.1C-242.6,381.8-242.4,381.9-242.3,382C-242.1,382-242.3,382-242.3,382
				C-242.5,381.9-242.2,382-242.3,382z M-242.9,381.9C-242.9,381.9-242.9,381.9-242.9,381.9C-242.9,381.8-242.9,381.8-242.9,381.9
				C-242.9,381.9-242.9,381.9-242.9,381.9z M-253.3,392.6C-253.2,392.6-253.2,392.6-253.3,392.6c0,0.2-0.3,0-0.3,0
				C-253.5,392.5-253.4,392.5-253.3,392.6z M-250.8,392.6C-251,393-251.4,392.3-250.8,392.6C-250.8,392.6-250.9,392.5-250.8,392.6z
				 M-250.1,394.8L-250.1,394.8C-250.1,394.7-250.1,394.7-250.1,394.8C-250,394.7-250.1,394.8-250.1,394.8z M-250,394.7
				c0,0,0-0.2,0.2-0.2C-249.7,394.6-249.9,394.8-250,394.7C-250,394.7-249.9,394.8-250,394.7z M-248.5,382.1c-0.1,0.1-0.3,0-0.4,0.1
				C-248.8,382.1-248.7,382.1-248.5,382.1C-248.7,382.2-248.6,382.1-248.5,382.1z M-253.2,391.2c0-0.2-0.1-0.2,0-0.3
				C-253.1,391-253.1,391.1-253.2,391.2C-253.2,391.1-253.1,391.1-253.2,391.2z M-256.5,397.6C-256.5,397.7-256.6,397.7-256.5,397.6
				c-0.1,0-0.1-0.2-0.1-0.2C-256.6,397.4-256.6,397.5-256.5,397.6C-256.5,397.6-256.6,397.5-256.5,397.6z M-248.8,385.5
				c0.1,0,0.3,0,0.4,0.1C-248.6,385.7-248.7,385.6-248.8,385.5z M-236,386.9L-236,386.9c0,0-0.3-0.2-0.2-0.2
				C-236.1,386.6-236,386.9-236,386.9z M-233.4,388.2c0-0.1-0.1,0-0.2-0.1C-233.5,388.1-233.4,388.1-233.4,388.2
				C-233.3,388.2-233.4,388.2-233.4,388.2C-233.4,388.2-233.4,388.2-233.4,388.2z M-248.3,382.2
				C-248.3,382.2-248.4,382.2-248.3,382.2c0-0.1,0.1-0.1,0.2-0.1C-248.2,382.1-248.3,382.3-248.3,382.2
				C-248.3,382.2-248.3,382.2-248.3,382.2z M-248.8,382.3c-0.1,0.1-0.2,0.2-0.4,0.2C-249,382.4-248.9,382.3-248.8,382.3z
				 M-248.8,386.1c0,0,0.1,0,0.1,0c-0.2,0.2-0.3-0.1-0.3-0.1C-249,386.1-248.8,386.1-248.8,386.1
				C-248.8,386.1-248.9,386.1-248.8,386.1z M-248.7,382.4c0.1-0.1,0.2-0.1,0.4-0.1C-248.5,382.4-248.6,382.4-248.7,382.4z
				 M-236.6,387.4c-0.1,0,0.2-0.1,0.1,0C-236.6,387.4-236.6,387.4-236.6,387.4C-236.7,387.4-236.6,387.4-236.6,387.4z M-232.8,388.2
				c-0.1,0-0.1-0.1-0.1-0.2C-232.8,388.1-232.8,388.2-232.8,388.2z M-248.5,382.9c0-0.1,0.1-0.1,0.2-0.1
				C-248.3,382.9-248.4,383-248.5,382.9z M-249.6,383.5c-0.1,0-0.2,0.1-0.2,0.1C-249.8,383.5-249.7,383.5-249.6,383.5z
				 M-240.3,384.1C-240.3,384.1-240.3,384.2-240.3,384.1C-240.3,384.2-240.4,384-240.3,384.1C-240.3,384-240.3,384.1-240.3,384.1
				C-240.3,384.1-240.3,384.1-240.3,384.1z M-254.3,391.7C-254.3,391.7-254.3,391.8-254.3,391.7
				C-254.4,391.7-254.3,391.6-254.3,391.7C-254.3,391.7-254.3,391.7-254.3,391.7z M-249.1,407.7C-249,407.7-249,407.8-249.1,407.7
				C-249,407.9-249.3,407.7-249.1,407.7C-249.1,407.7-249.1,407.7-249.1,407.7z M-249.4,383.5c0,0-0.1,0.1-0.1,0.1
				C-249.5,383.6-249.5,383.5-249.4,383.5z M-256.4,397.6C-256.4,397.7-256.5,397.4-256.4,397.6
				C-256.4,397.6-256.4,397.5-256.4,397.6z M-248.4,383.8C-248.4,383.8-248.4,383.8-248.4,383.8
				C-248.4,383.8-248.4,383.8-248.4,383.8z M-249.1,382.3C-249.1,382.3-249.1,382.3-249.1,382.3
				C-249.1,382.3-249.1,382.3-249.1,382.3z M-249.2,382.3C-249.2,382.3-249.1,382.3-249.2,382.3
				C-249.1,382.3-249.1,382.3-249.2,382.3z M-249.2,382.4L-249.2,382.4C-249.2,382.4-249.2,382.4-249.2,382.4z M-249.2,382.4
				C-249.2,382.3-249.2,382.3-249.2,382.4C-249.2,382.4-249.2,382.4-249.2,382.4z M-248.7,382.4L-248.7,382.4
				C-248.7,382.4-248.7,382.4-248.7,382.4z M-248.7,382.4C-248.7,382.4-248.8,382.4-248.7,382.4
				C-248.8,382.4-248.8,382.4-248.7,382.4z M-254.4,398.2C-254.5,398.2-254.4,398.2-254.4,398.2
				C-254.4,398.2-254.4,398.2-254.4,398.2z M-237.9,383.6C-237.8,383.6-237.9,383.6-237.9,383.6
				C-237.9,383.6-237.9,383.6-237.9,383.6z M-240.3,384.2C-240.3,384.2-240.3,384.2-240.3,384.2
				C-240.3,384.2-240.3,384.2-240.3,384.2C-240.3,384.2-240.3,384.2-240.3,384.2C-240.3,384.2-240.3,384.2-240.3,384.2z
				 M-248.8,382.4C-248.8,382.4-248.8,382.4-248.8,382.4C-248.8,382.4-248.8,382.4-248.8,382.4
				C-248.8,382.4-248.8,382.4-248.8,382.4z M-248.8,382.4C-248.8,382.4-248.8,382.4-248.8,382.4
				C-248.8,382.4-248.8,382.4-248.8,382.4C-248.8,382.4-248.8,382.4-248.8,382.4z M-234.7,387.2L-234.7,387.2L-234.7,387.2
				L-234.7,387.2z M-247,397.2C-247,397.1-247,397.1-247,397.2C-247,397.2-247,397.1-247,397.2z M-239.7,411.5
				C-239.7,411.5-239.7,411.5-239.7,411.5C-239.7,411.5-239.7,411.5-239.7,411.5C-239.7,411.5-239.7,411.5-239.7,411.5z
				 M-239.7,411.5C-239.7,411.5-239.7,411.5-239.7,411.5L-239.7,411.5z M-252,386.2c0,0,0.2,0,0.1,0C-252,386.3-252,386.3-252,386.2
				C-252,386.2-252,386.2-252,386.2z M-252.9,385C-253,384.9-252.9,384.9-252.9,385C-252.8,384.9-252.8,384.9-252.9,385
				C-252.9,385-252.9,385-252.9,385z"/>
			<path class="st13" d="M-236,387.1c0,0,0.1-0.1,0.1-0.1c0.1,0,0.3,0.4,0.3,0.4C-235.8,387.6-235.9,387.1-236,387.1z M-236.2,386.7
				c-0.1,0.1,0.1,0.2,0.2,0.2l0,0C-236,386.9-236.1,386.6-236.2,386.7z M-248.6,410c-0.4-0.1-0.9,0-1.2-0.4
				c-0.2-0.2-0.5-0.4-0.6-0.7c-0.1-0.1,0.1-0.3-0.1-0.3c-0.2,0-0.1,0.1-0.1-0.1c0-0.3-0.2-0.4,0.1-0.3c0,0,0-0.6-0.2-0.5
				c0.2,0.2,0,0.3,0,0.2c0-0.2-0.2-0.8-0.3-1c0.7,0.1,1.4,0.2,2.1,0.2c0,0,0.1,0,0.1,0c0,0,0,0,0,0c0,0.1,0.1,0.3,0.1,0.4
				c-0.1,0.2-0.4-0.1-0.5,0c-0.1,0.1,0.2,0.4,0.2,0.4c0,0.1-0.1,0.4-0.1,0.4c-0.1,0-0.3,0.2-0.1,0.3c0.1,0.1,0.2,0.1,0.3,0.1
				c0.2,0.1-0.2,0.3-0.1,0.4c0.1,0.2-0.3,0.1,0.1,0.4c-0.5,0,0,0.3,0,0.3c-0.1,0,0,0,0-0.1c0,0-0.1,0-0.2,0c-0.1-0.2,0.4,0.1,0.4,0
				c0.1,0.1,0.4,0.1,0.5,0.2C-248.4,409.9-248.6,410-248.6,410C-248.6,410-248.7,410-248.6,410z M-250.8,407.5
				C-250.8,407.5-250.8,407.5-250.8,407.5C-250.7,407.5-250.9,407.5-250.8,407.5z M-250,409.4C-250,409.4-250,409.4-250,409.4
				C-250,409.4-250,409.4-250,409.4C-249.9,409.4-249.9,409.4-250,409.4z M-249.4,409.6C-249.5,409.6-249.5,409.7-249.4,409.6
				C-249.4,409.7-249.4,409.7-249.4,409.6C-249.4,409.6-249.4,409.6-249.4,409.6z M-249.4,409.7
				C-249.4,409.7-249.4,409.7-249.4,409.7C-249.4,409.7-249.4,409.7-249.4,409.7z M-250.6,408.1
				C-250.6,408.1-250.6,408.1-250.6,408.1C-250.6,408.1-250.6,408.1-250.6,408.1z M-248.6,410C-248.6,410-248.6,410-248.6,410
				C-248.6,410-248.6,410-248.6,410z M-238.6,383.6c0.2,0.3,0.4,0.5,0.7,0.8c0,0,0.1,0,0.1,0c-0.1-0.2-0.2-0.4-0.4-0.6
				C-238.3,383.7-238.5,383.6-238.6,383.6z M-237.9,383.6C-237.9,383.6-237.8,383.6-237.9,383.6L-237.9,383.6z M-233.4,388.2
				L-233.4,388.2C-233.4,388.2-233.4,388.2-233.4,388.2z M-230.2,399.7C-230.2,399.7-230.2,399.7-230.2,399.7
				C-230.2,399.7-230.2,399.7-230.2,399.7z M-230.3,392.4c0.1,0.3,0.2,0.5,0.2,0.8C-230.1,393.1-230.2,392.8-230.3,392.4z
				 M-230,397.2C-230,397.2-230,397.2-230,397.2C-230,397.2-230,397.2-230,397.2z M-232.9,388.1c0,0.1,0,0.1,0.1,0.2
				C-232.8,388.2-232.8,388.1-232.9,388.1z M-234.7,387.2L-234.7,387.2L-234.7,387.2L-234.7,387.2z M-233.3,388.2
				c-0.1-0.1-0.2,0-0.3-0.1C-233.5,388.2-233.4,388.2-233.3,388.2C-233.4,388.2-233.4,388.2-233.3,388.2
				C-233.4,388.2-233.3,388.2-233.3,388.2z M-229.7,398.2c-0.2,1.2-0.3,2.4-0.7,3.5c-0.2,0.5-0.4,1.1-0.7,1.6
				c-0.1,0.2-0.3,0.4-0.4,0.6c-0.1,0.2-0.2,0.5-0.4,0.6c-0.3,0.4-0.5,0.9-1,1.1c-0.2,0.1-0.5,0.1-0.7,0.3c-0.1-0.3,0.2-0.7,0.3-0.9
				c0.1-0.4,0.1-0.9,0.2-1.3c0.3-0.8,0-1.6,0.3-2.4c0.1-0.3,0.2-0.6,0.4-0.8c0.2-0.3,0.1-0.7,0.1-1c0.1-0.4-0.1-0.9-0.3-1.3
				c-0.1-0.1-0.5-0.7-0.3-0.8c0.2-0.2,0.2-1.3-0.1-1.4c-0.2-0.1-0.4,0.2-0.5,0c-0.1-0.2-0.1-0.4-0.3-0.5c-0.2-0.1-1.1,0.5-1.2,0.5
				c-0.1,0-0.2-0.1-0.3-0.1c0.2-0.9,0.3-1.9,0.3-2.9c0-1.8-0.3-3.5-0.9-5.1c0.2,0,0.6-0.1,0.7,0c0.1,0.1,0.4,0.3,0.4,0.6
				c-0.1,0.3,0.6,0.4,0.7,0.4c0.2,0.1,0.3,0.3,0.5,0.3c0.1,0,0.2,0.1,0.3,0.2c0.2,0.1-0.3-0.8,0.1-0.6c0.2,0.2,0.5,0.3,0.8,0.4
				c0-0.1,0-0.1,0-0.1c0.2-0.1,0.3,0.2,0.1-0.2c-0.1-0.1-0.5-1-0.6-1c-0.1,0,0,0.1,0,0.1c-0.1,0-0.2-0.2-0.2-0.1c0,0,0,0.1,0,0.1
				c-0.1,0.1-0.8-0.7-0.9-0.8c0,0,0.1,0,0.1,0c0-0.1,0-0.1-0.1-0.1c0,0,0.1,0,0.1,0c0-0.1,0-0.1,0-0.2c0.1-0.1,0.3,0.2,0.4,0.2
				c-0.1-0.3-0.6-0.7-0.9-0.8c0,0,0,0.1,0,0.1c-0.1-0.1-0.2-0.1-0.3-0.3c0.1,0.1,0.1,0.1,0.2,0.1c0.1-0.1-0.2-0.3-0.3-0.3
				c0,0.1,0,0.1,0,0.2c-0.1,0.1-0.1-0.1-0.2-0.1c0.1,0.4,0.5,0.9,0.9,1.1c0,0-0.2,0.1-0.1,0.1c-0.2,0-0.2,0.1-0.3,0.1
				c0,0.2,0.3,0.3,0.4,0.4c0.1,0.1,0.1,0.3,0.2,0.4c-0.1,0-0.4-0.3-0.4-0.3c-0.1,0-0.4-0.4-0.5-0.5c-0.2-0.2-0.2-0.3-0.5-0.4
				c-0.3-0.2-0.6-0.5-0.9-0.6c-0.2-0.1,0.1,0.3,0.1,0.3c0.1,0.1,0.3,0.2,0.5,0.4c0.3,0.2,0.6,0.2,0.8,0.5c-0.1,0-0.1-0.1-0.2-0.1
				c0,0.1,0.2,0.3,0.2,0.5c0,0,0.1,0.3,0.1,0.3c-0.1,0-0.5-0.2-0.5-0.3c0-0.1,0.5,0,0.3-0.2c-0.2-0.2-0.4-0.3-0.6-0.4
				c-0.3-0.2-0.7-0.5-1.1-0.7c0,0.1,0,0.2-0.1,0.2c-0.3-0.7-0.7-1.3-1.2-1.9c0.1,0,0.3,0,0.3,0c0.1-0.2,0,0,0.3,0
				c0-0.2-0.4-0.4-0.4-0.5c0.1,0,0.1,0.1,0.2,0.1c0,0-0.7-0.4-0.3-0.4c0.1-0.2-0.3-0.3-0.3-0.3c0.1,0.1,0.1,0.1,0.2,0.1
				c-0.4,0.3-0.8-0.2-1.2-0.5c-0.2-0.2-0.3-0.3-0.5-0.5c0.2,0.1,0.4,0.2,0.5,0.2c0,0,0,0,0,0c0,0,0.4,0.2,0.6,0.3
				c0,0-0.3-0.2-0.3-0.2c0.1,0.1,0.5,0.2,0.6,0.3c0.3,0.1,0.5,0.3,0.8,0.4c0.6,0.3,1.1,0.7,1.6,1.1c1.1,0.8,2,1.7,2.8,2.7
				c0.9,1.1,1.6,2.3,2.1,3.6c0.2,0.5,0.4,1,0.5,1.4c-0.4-1.1-1.4-2.7-1.5-2.7c-0.1,0.1,0.7,1.3,0.8,1.4c0,0,0.1,0.1,0,0
				c0.3,0.7,0.6,1.4,0.9,2.1c0,0,0,0,0-0.1c0.1,0.3,0.2,0.7,0.3,1l0,0C-229.6,395.6-229.6,396.9-229.7,398.2z M-230.2,396.7
				c0-0.1,0.1-0.2,0-0.3C-230.2,396.6-230.3,396.6-230.2,396.7z M-230.3,397.2c0,0,0.1-0.1,0-0.1
				C-230.3,397.1-230.3,397.2-230.3,397.2z M-230.6,401.2C-230.6,401.2-230.6,401.2-230.6,401.2
				C-230.6,401.2-230.8,401.2-230.6,401.2C-230.7,401.2-230.6,401.2-230.6,401.2C-230.6,401.2-230.6,401.2-230.6,401.2z
				 M-230.4,399.3c-0.1,0.1-0.2,0.1-0.2,0.2C-230.5,399.5-230.4,399.4-230.4,399.3z M-230.4,398.8c0,0.1,0,0.4,0.1,0.5
				c0-0.5,0-0.9,0-1.4C-230.4,398.2-230.4,398.6-230.4,398.8C-230.4,398.7-230.4,398.9-230.4,398.8z M-230.2,399.6
				c0,0.4-0.2,0.8-0.2,1.2C-230.2,400.6-230.2,399.9-230.2,399.6C-230.2,399.7-230.2,399.7-230.2,399.6
				C-230.2,399.7-230.1,399.6-230.2,399.6z M-230,397.2c0-0.1,0-0.1,0-0.2c-0.2,0.1-0.1,0.6-0.1,0.8C-230,397.6-230,397.5-230,397.2
				C-230,397.2-230,397.1-230,397.2z M-249,407.8C-249,407.8-249,407.7-249,407.8C-249.3,407.7-249,407.9-249,407.8z M-239.7,411.5
				c-0.3,0-1.4,0.3-1.5,0c-0.1,0-0.6,0.1-0.8,0.2c-0.3,0-0.6,0.1-1,0.2c-0.5,0.1-1,0.3-1.6,0.4c-0.2,0-1.7,0.1-1.7-0.2
				c0-0.2-0.3-0.3-0.4-0.4c0,0-0.3-0.4-0.3-0.3c0-0.1,0.3-0.1,0.3-0.1c0-0.2,0.1-0.1,0.2-0.1c-0.1,0-0.9,0.1-0.9,0.1
				c0,0.1,0,0.1,0,0.2c0,0.1-0.2,0-0.2,0c0,0.1,0.5,0.1,0.3,0.2c0,0-0.4,0-0.5,0c0,0.1,0.5,0.2,0.6,0.3c-0.6-0.1-1.2,0-1.8-0.1
				c0.2,0.1,0.4,0.1,0.6,0.2c-0.2,0-0.4-0.1-0.6-0.1c1.5,0.5,3.2,0.6,4.8,0.5c0.8,0,1.7-0.1,2.5-0.3
				C-241.6,412.1-239.6,411.6-239.7,411.5C-239.7,411.5-239.7,411.5-239.7,411.5z M-239.7,411.5
				C-239.7,411.5-239.7,411.5-239.7,411.5C-239.7,411.5-239.7,411.5-239.7,411.5z M-249.1,407.7
				C-249.1,407.7-249.1,407.7-249.1,407.7L-249.1,407.7z M-239.7,411.5C-239.7,411.5-239.7,411.5-239.7,411.5
				C-239.7,411.5-239.7,411.5-239.7,411.5C-239.7,411.5-239.7,411.5-239.7,411.5z M-230.5,402.3
				C-230.5,402.3-230.5,402.3-230.5,402.3C-230.5,402.3-230.5,402.3-230.5,402.3z M-230.6,402.5c-0.1,0.2-0.1,0.3-0.2,0.5
				C-230.7,402.8-230.6,402.7-230.6,402.5z"/>
		</g>
	</g>
</g>
</svg>
