<?xml version="1.0" encoding="iso-8859-1"?>
<!-- Generator: Adobe Illustrator 19.2.0, SVG Export Plug-In . SVG Version: 6.00 Build 0)  -->
<svg version="1.1" id="Layer_1" xmlns="http://www.w3.org/2000/svg" xmlns:xlink="http://www.w3.org/1999/xlink" x="0px" y="0px"
	 viewBox="0 0 40 40" style="enable-background:new 0 0 40 40;" xml:space="preserve">
<g>
	<path style="fill:#FFADAD;" d="M17.167,38.5C16.607,38.499,3.5,38.336,3.5,25.7C3.5,8.781,13.872,1.5,17.167,1.5
		c1.461,0,2.333,0.878,2.333,2.35v32.3C19.5,37.446,18.453,38.5,17.167,38.5z"/>
	<path style="fill:#C74343;" d="M17.167,2C18.762,2,19,3.159,19,3.85v32.3c0,1.02-0.822,1.85-1.833,1.85C16.629,38,4,37.86,4,25.7
		C4,9.13,13.993,2,17.167,2 M17.167,1C13.389,1,3,8.6,3,25.7C3,39,17.167,39,17.167,39C18.732,39,20,37.723,20,36.15V3.85
		C20,2.277,19.056,1,17.167,1L17.167,1z"/>
</g>
<path style="fill:none;stroke:#C74343;stroke-linecap:round;stroke-miterlimit:10;" d="M12.5,17.5h2c1.105,0,2-0.895,2-2v0
	c0-1.105-0.895-2-2-2h-2"/>
<path style="fill:none;stroke:#C74343;stroke-linecap:round;stroke-miterlimit:10;" d="M14.5,9.5h-2c-1.105,0-2,0.895-2,2v0
	c0,1.105,0.895,2,2,2h2"/>
<path style="fill:none;stroke:#C74343;stroke-linecap:round;stroke-miterlimit:10;" d="M12.5,27.5h-2c-1.105,0-2,0.895-2,2v0
	c0,1.105,0.895,2,2,2h2"/>
<path style="fill:none;stroke:#C74343;stroke-linecap:round;stroke-miterlimit:10;" d="M13.5,34.5H15c0.828,0,1.5-0.672,1.5-1.5l0,0
	c0-0.828-0.672-1.5-1.5-1.5h-3.75"/>
<path style="fill:none;stroke:#C74343;stroke-linecap:round;stroke-miterlimit:10;" d="M13.5,9.5H15c0.828,0,1.5-0.672,1.5-1.5v0
	c0-0.828-0.672-1.5-1.5-1.5h-1.5"/>
<path style="fill:none;stroke:#C74343;stroke-linecap:round;stroke-miterlimit:10;" d="M11.5,27.5H14c1.381,0,2.5-1.119,2.5-2.5v0
	c0-1.381-1.119-2.5-2.5-2.5h-2.5"/>
<path style="fill:none;stroke:#C74343;stroke-linecap:round;stroke-miterlimit:10;" d="M13.75,17.5H10c-1.381,0-2.5,1.119-2.5,2.5v0
	c0,1.381,1.119,2.5,2.5,2.5h2.5"/>
<g>
	<path style="fill:#FFADAD;" d="M21.833,38.5c-1.287,0-2.333-1.054-2.333-2.35V3.85c0-1.472,0.873-2.35,2.333-2.35
		C25.128,1.5,35.5,8.781,35.5,25.7C35.5,38.354,22.392,38.5,21.833,38.5z"/>
	<path style="fill:#C74343;" d="M21.833,2C25.007,2,35,9.13,35,25.7C35,37.826,22.37,37.999,21.833,38C20.822,38,20,37.17,20,36.15
		V3.85C20,3.159,20.238,2,21.833,2 M21.833,1C19.944,1,19,2.277,19,3.85v32.3c0,1.573,1.268,2.85,2.833,2.85
		C21.833,39,36,39,36,25.7C36,8.6,25.611,1,21.833,1L21.833,1z"/>
</g>
<path style="fill:none;stroke:#C74343;stroke-linecap:round;stroke-miterlimit:10;" d="M26.5,17.5h-2c-1.105,0-2-0.895-2-2v0
	c0-1.105,0.895-2,2-2h2"/>
<path style="fill:none;stroke:#C74343;stroke-linecap:round;stroke-miterlimit:10;" d="M24.5,9.5h2c1.105,0,2,0.895,2,2v0
	c0,1.105-0.895,2-2,2h-2"/>
<path style="fill:none;stroke:#C74343;stroke-linecap:round;stroke-miterlimit:10;" d="M26.5,27.5h2c1.105,0,2,0.895,2,2v0
	c0,1.105-0.895,2-2,2h-2"/>
<path style="fill:none;stroke:#C74343;stroke-linecap:round;stroke-miterlimit:10;" d="M25.5,34.5H24c-0.828,0-1.5-0.672-1.5-1.5
	l0,0c0-0.828,0.672-1.5,1.5-1.5h3.75"/>
<path style="fill:none;stroke:#C74343;stroke-linecap:round;stroke-miterlimit:10;" d="M25.5,9.5H24c-0.828,0-1.5-0.672-1.5-1.5v0
	c0-0.828,0.672-1.5,1.5-1.5h1.5"/>
<path style="fill:none;stroke:#C74343;stroke-linecap:round;stroke-miterlimit:10;" d="M27.5,27.5H25c-1.381,0-2.5-1.119-2.5-2.5v0
	c0-1.381,1.119-2.5,2.5-2.5h2.5"/>
<path style="fill:none;stroke:#C74343;stroke-linecap:round;stroke-miterlimit:10;" d="M25.25,17.5H29c1.381,0,2.5,1.119,2.5,2.5v0
	c0,1.381-1.119,2.5-2.5,2.5h-2.5"/>
</svg>
